<svg width="64" height="64" viewBox="0 0 64 64" fill="none" xmlns="http://www.w3.org/2000/svg">
<path d="M42.4428 32.2683L32.6917 53.5484C32.5281 53.8517 32.2998 54 32.0054 54H31.6019C31.3081 54 31.0791 53.8517 30.9162 53.5484L20.7587 31.2424L24.3773 24.8288C24.7299 24.8288 24.9582 24.9777 25.063 25.2805L31.7183 40.281H31.9666L38.6219 25.2805C38.7261 24.9777 38.9545 24.8288 39.3076 24.8288L42.4428 32.2683Z" fill="#945DD6"/>
<path d="M42.4428 32.2683L38.7327 40.3632C36.9955 37.8038 36.1922 34.8743 36.1922 31.6174C36.1922 31.3145 36.1987 31.0115 36.2116 30.7086L38.6219 25.2832C38.7261 24.9804 38.9545 24.8315 39.3076 24.8315L42.4428 32.2683ZM24.991 40.5378L20.7587 31.2424L24.3773 24.8288C24.7299 24.8288 24.9582 24.9777 25.063 25.2805L27.6035 31.0086L27.6429 31.4088C27.9366 34.8146 26.9045 37.8848 24.991 40.5362V40.5378Z" fill="#71548F"/>
<path d="M41.4194 41.9245C38.5591 39.099 37.2526 35.6686 37.2526 31.6174C37.2526 27.5661 38.5591 24.122 41.4194 21.2702C44.2798 18.4185 47.7487 17 51.8175 17C55.6117 17 58.8926 18.2557 61.6601 20.7671C62.0714 21.1503 62.0847 21.5221 61.7056 21.902L58.5315 25.1792C58.179 25.5014 57.8393 25.5014 57.5127 25.1792C55.9646 23.805 54.1337 23.117 52.0198 23.1152C49.7404 23.1152 47.8421 23.9322 46.3247 25.5662C44.8031 27.1982 44.1368 29.1592 44.1368 31.4531C44.1368 33.7235 44.8092 35.6588 46.3441 37.265C47.879 38.8713 49.7809 39.6711 52.0592 39.6711C54.1752 39.6711 55.9931 39.0239 57.5127 37.7293C57.8915 37.407 58.2442 37.42 58.5709 37.7681L61.745 41.129C62.0975 41.4838 62.0847 41.8451 61.7056 42.224C58.989 44.8423 55.693 46.1517 51.8175 46.1521C47.7487 46.1521 44.2827 44.7416 41.4194 41.9207V41.9245Z" fill="#F46737"/>
<path d="M2.0005 45.298V17.7933C1.99671 17.6897 2.01443 17.5866 2.05257 17.49C2.0907 17.3935 2.14844 17.3058 2.22223 17.2321C2.28423 17.1599 2.36131 17.1018 2.44819 17.0617C2.53506 17.0216 2.62968 17.0006 2.72556 17H12.5288C16.5521 17.2902 19.5499 18.4513 22.3127 21.2894C25.0755 24.1275 26.1858 27.3531 26.5383 31.5079C26.8781 35.4945 25.2517 38.9583 22.4956 41.8095C19.7395 44.6607 16.4086 46.0924 12.5288 46.0924H2.72556C2.6296 46.0917 2.53492 46.0704 2.44804 46.0302C2.36116 45.9899 2.28413 45.9316 2.22223 45.8592C2.14844 45.7855 2.0907 45.6977 2.05257 45.6012C2.01443 45.5047 1.99671 45.4015 2.0005 45.298ZM8.27049 24.4762V39.9389H12.1242C14.3784 39.9389 16.2486 39.1282 17.7345 37.507C19.2205 35.8858 19.9625 33.8861 19.9607 31.5079C19.9607 29.1538 19.2162 27.1604 17.734 25.5405C16.2517 23.9205 14.377 23.1086 12.1236 23.1086H8.27049V24.4773V24.4762Z" fill="#13ADC7"/>
</svg>
