<svg width="835" height="169" viewBox="0 0 835 169" fill="none" xmlns="http://www.w3.org/2000/svg">
<g clip-path="url(#clip0_4_1250)">
<path d="M834.19 -0.0200195H-0.0200195V168.93H834.19V-0.0200195Z" fill="#051D24"/>
<path d="M215.67 56.49C217.25 56.49 218.72 56.74 220.08 57.24C221.44 57.74 222.62 58.5 223.61 59.5C224.61 60.51 225.38 61.76 225.94 63.27C226.5 64.78 226.78 66.55 226.78 68.59C226.78 70.37 226.55 72.02 226.09 73.53C225.63 75.04 224.94 76.34 224.01 77.44C223.08 78.54 221.93 79.4 220.55 80.03C219.17 80.66 217.54 80.97 215.66 80.97H205.1V56.49H215.67ZM215.29 76.45C216.07 76.45 216.82 76.32 217.55 76.07C218.28 75.82 218.93 75.4 219.51 74.82C220.08 74.24 220.54 73.48 220.88 72.54C221.22 71.6 221.39 70.46 221.39 69.11C221.39 67.87 221.27 66.76 221.03 65.77C220.79 64.78 220.4 63.92 219.85 63.21C219.3 62.5 218.57 61.96 217.67 61.58C216.77 61.2 215.65 61.01 214.33 61.01H210.49V76.45H215.29Z" fill="white"/>
<path d="M235.84 80.98L227.92 56.49H233.44L238.89 73.71H238.96L244.48 56.49H250.04L241.91 80.98H235.84Z" fill="white"/>
<path d="M267.84 63.02C267.52 62.51 267.12 62.05 266.64 61.67C266.16 61.28 265.62 60.98 265.01 60.76C264.4 60.54 263.77 60.43 263.11 60.43C261.9 60.43 260.87 60.66 260.02 61.13C259.17 61.6 258.49 62.23 257.96 63.02C257.43 63.81 257.05 64.71 256.81 65.71C256.57 66.72 256.45 67.76 256.45 68.83C256.45 69.86 256.57 70.86 256.81 71.83C257.05 72.8 257.43 73.68 257.96 74.45C258.49 75.23 259.17 75.85 260.02 76.32C260.87 76.79 261.9 77.02 263.11 77.02C264.76 77.02 266.04 76.52 266.97 75.51C267.9 74.5 268.46 73.18 268.67 71.53H273.88C273.74 73.06 273.39 74.45 272.82 75.68C272.25 76.92 271.49 77.97 270.56 78.84C269.62 79.71 268.52 80.37 267.27 80.83C266.01 81.29 264.63 81.52 263.12 81.52C261.24 81.52 259.56 81.19 258.06 80.54C256.56 79.89 255.3 78.99 254.27 77.85C253.24 76.71 252.45 75.36 251.9 73.82C251.35 72.28 251.08 70.61 251.08 68.83C251.08 67 251.35 65.3 251.9 63.74C252.45 62.17 253.24 60.81 254.27 59.64C255.3 58.47 256.56 57.56 258.06 56.9C259.56 56.24 261.24 55.91 263.12 55.91C264.47 55.91 265.74 56.1 266.94 56.49C268.14 56.88 269.22 57.45 270.16 58.19C271.11 58.93 271.89 59.85 272.51 60.95C273.13 62.05 273.52 63.31 273.68 64.72H268.47C268.37 64.1 268.16 63.54 267.84 63.02Z" fill="white"/>
<path d="M291.78 76.73C292.51 77.44 293.56 77.79 294.94 77.79C295.92 77.79 296.77 77.54 297.48 77.05C298.19 76.56 298.62 76.04 298.78 75.49H303.07C302.38 77.62 301.33 79.14 299.91 80.05C298.49 80.97 296.78 81.42 294.76 81.42C293.36 81.42 292.11 81.2 290.99 80.75C289.87 80.3 288.92 79.67 288.14 78.85C287.36 78.03 286.76 77.04 286.34 75.9C285.92 74.76 285.71 73.5 285.71 72.13C285.71 70.8 285.93 69.57 286.36 68.43C286.79 67.29 287.41 66.3 288.21 65.46C289.01 64.63 289.96 63.97 291.07 63.49C292.18 63.01 293.41 62.77 294.76 62.77C296.27 62.77 297.58 63.06 298.7 63.64C299.82 64.22 300.74 65.01 301.46 65.99C302.18 66.97 302.7 68.09 303.02 69.35C303.34 70.61 303.45 71.92 303.36 73.29H290.57C290.65 74.88 291.05 76.02 291.78 76.73ZM297.29 67.4C296.71 66.76 295.82 66.44 294.63 66.44C293.85 66.44 293.21 66.57 292.69 66.83C292.18 67.09 291.76 67.42 291.46 67.81C291.15 68.2 290.93 68.61 290.81 69.05C290.68 69.48 290.61 69.87 290.59 70.22H298.51C298.28 68.98 297.87 68.04 297.29 67.4Z" fill="white"/>
<path d="M304.96 63.25H310.52L313.64 67.88L316.73 63.25H322.12L316.29 71.55L322.84 80.98H317.28L313.58 75.39L309.88 80.98H304.43L310.81 71.65L304.96 63.25Z" fill="white"/>
<path d="M334.42 63.25V66.51H330.85V75.29C330.85 76.11 330.99 76.66 331.26 76.94C331.53 77.22 332.08 77.35 332.91 77.35C333.18 77.35 333.45 77.34 333.7 77.32C333.95 77.3 334.19 77.26 334.42 77.22V80.99C334.01 81.06 333.55 81.1 333.05 81.13C332.55 81.15 332.06 81.16 331.57 81.16C330.82 81.16 330.1 81.11 329.43 81.01C328.76 80.91 328.16 80.71 327.65 80.41C327.14 80.11 326.73 79.69 326.43 79.14C326.13 78.59 325.98 77.87 325.98 76.98V66.51H323.03V63.25H325.98V57.93H330.85V63.25H334.42Z" fill="white"/>
<path d="M341.97 76.73C342.7 77.44 343.75 77.79 345.13 77.79C346.11 77.79 346.96 77.54 347.67 77.05C348.38 76.56 348.81 76.04 348.97 75.49H353.26C352.57 77.62 351.52 79.14 350.1 80.05C348.68 80.97 346.97 81.42 344.95 81.42C343.55 81.42 342.3 81.2 341.18 80.75C340.06 80.3 339.11 79.67 338.33 78.85C337.55 78.03 336.95 77.04 336.53 75.9C336.11 74.76 335.9 73.5 335.9 72.13C335.9 70.8 336.12 69.57 336.55 68.43C336.98 67.29 337.6 66.3 338.4 65.46C339.2 64.63 340.15 63.97 341.26 63.49C342.37 63.01 343.6 62.77 344.95 62.77C346.46 62.77 347.77 63.06 348.89 63.64C350.01 64.22 350.93 65.01 351.65 65.99C352.37 66.97 352.89 68.09 353.21 69.35C353.53 70.61 353.64 71.92 353.55 73.29H340.76C340.84 74.88 341.23 76.02 341.97 76.73ZM347.47 67.4C346.89 66.76 346 66.44 344.81 66.44C344.03 66.44 343.39 66.57 342.87 66.83C342.36 67.09 341.94 67.42 341.64 67.81C341.33 68.2 341.11 68.61 340.99 69.05C340.86 69.48 340.79 69.87 340.77 70.22H348.69C348.46 68.98 348.06 68.04 347.47 67.4Z" fill="white"/>
<path d="M361.07 63.25V65.72H361.17C361.79 64.69 362.59 63.94 363.57 63.47C364.55 63 365.56 62.77 366.59 62.77C367.89 62.77 368.96 62.95 369.8 63.3C370.63 63.65 371.29 64.15 371.77 64.78C372.25 65.41 372.59 66.18 372.78 67.08C372.97 67.98 373.07 68.98 373.07 70.08V80.99H368.2V70.97C368.2 69.51 367.97 68.41 367.51 67.69C367.05 66.97 366.24 66.61 365.07 66.61C363.74 66.61 362.78 67 362.19 67.79C361.6 68.58 361.3 69.88 361.3 71.68V80.98H356.43V63.25H361.07Z" fill="white"/>
<path d="M380.88 76.57C381.1 76.95 381.38 77.26 381.72 77.5C382.06 77.74 382.46 77.92 382.9 78.03C383.35 78.14 383.81 78.2 384.29 78.2C384.63 78.2 384.99 78.16 385.37 78.08C385.75 78 386.09 77.87 386.4 77.7C386.71 77.53 386.97 77.3 387.17 77.01C387.38 76.72 387.48 76.36 387.48 75.93C387.48 75.2 386.99 74.65 386.02 74.28C385.05 73.91 383.69 73.55 381.96 73.18C381.25 73.02 380.56 72.83 379.88 72.61C379.21 72.39 378.61 72.11 378.08 71.75C377.55 71.4 377.13 70.95 376.81 70.41C376.49 69.87 376.33 69.22 376.33 68.44C376.33 67.3 376.55 66.36 377 65.63C377.45 64.9 378.03 64.32 378.77 63.9C379.5 63.48 380.33 63.18 381.24 63.01C382.15 62.84 383.09 62.75 384.05 62.75C385.01 62.75 385.94 62.84 386.85 63.02C387.75 63.2 388.56 63.51 389.27 63.95C389.98 64.38 390.57 64.96 391.04 65.68C391.51 66.4 391.79 67.31 391.88 68.41H387.25C387.18 67.47 386.83 66.84 386.19 66.51C385.55 66.18 384.79 66.01 383.93 66.01C383.66 66.01 383.36 66.03 383.04 66.06C382.72 66.09 382.43 66.17 382.17 66.28C381.91 66.39 381.68 66.56 381.5 66.78C381.32 67 381.23 67.29 381.23 67.65C381.23 68.08 381.39 68.44 381.71 68.71C382.03 68.98 382.45 69.21 382.96 69.38C383.47 69.55 384.06 69.71 384.73 69.84C385.39 69.98 386.07 70.13 386.75 70.29C387.46 70.45 388.15 70.64 388.83 70.87C389.5 71.1 390.1 71.4 390.63 71.78C391.16 72.16 391.58 72.63 391.9 73.19C392.22 73.75 392.38 74.44 392.38 75.27C392.38 76.44 392.15 77.41 391.68 78.2C391.21 78.99 390.6 79.62 389.84 80.1C389.09 80.58 388.22 80.92 387.25 81.11C386.28 81.3 385.29 81.4 384.28 81.4C383.25 81.4 382.24 81.3 381.26 81.09C380.28 80.88 379.4 80.54 378.64 80.06C377.87 79.58 377.24 78.95 376.75 78.16C376.26 77.37 375.99 76.38 375.94 75.19H380.57C380.56 75.74 380.67 76.2 380.88 76.57Z" fill="white"/>
<path d="M395.34 60.5V56.49H400.21V60.5H395.34ZM400.21 63.25V80.98H395.34V63.25H400.21Z" fill="white"/>
<path d="M404.16 68.27C404.59 67.12 405.21 66.13 406.01 65.32C406.81 64.51 407.77 63.88 408.89 63.43C410.01 62.98 411.27 62.76 412.66 62.76C414.05 62.76 415.32 62.98 416.45 63.43C417.58 63.88 418.55 64.51 419.35 65.32C420.15 66.13 420.77 67.12 421.2 68.27C421.63 69.43 421.85 70.71 421.85 72.13C421.85 73.55 421.63 74.83 421.2 75.97C420.76 77.11 420.15 78.09 419.35 78.9C418.55 79.71 417.58 80.34 416.45 80.77C415.32 81.2 414.05 81.42 412.66 81.42C411.26 81.42 410.01 81.2 408.89 80.77C407.77 80.34 406.81 79.71 406.01 78.9C405.21 78.09 404.59 77.11 404.16 75.97C403.73 74.83 403.51 73.55 403.51 72.13C403.5 70.71 403.72 69.43 404.16 68.27ZM408.58 74.21C408.72 74.88 408.95 75.49 409.28 76.03C409.61 76.57 410.05 77 410.6 77.32C411.15 77.64 411.83 77.8 412.66 77.8C413.49 77.8 414.17 77.64 414.74 77.32C415.3 77 415.75 76.57 416.08 76.03C416.41 75.49 416.65 74.89 416.78 74.21C416.92 73.54 416.99 72.84 416.99 72.13C416.99 71.42 416.92 70.72 416.78 70.04C416.64 69.36 416.41 68.75 416.08 68.22C415.75 67.69 415.3 67.27 414.74 66.93C414.18 66.6 413.49 66.43 412.66 66.43C411.83 66.43 411.15 66.6 410.6 66.93C410.05 67.26 409.61 67.69 409.28 68.22C408.95 68.75 408.71 69.35 408.58 70.04C408.45 70.73 408.37 71.42 408.37 72.13C408.38 72.84 408.44 73.53 408.58 74.21Z" fill="white"/>
<path d="M429.64 63.25V65.72H429.74C430.36 64.69 431.16 63.94 432.14 63.47C433.12 63 434.13 62.77 435.16 62.77C436.46 62.77 437.53 62.95 438.37 63.3C439.2 63.65 439.86 64.15 440.34 64.78C440.82 65.41 441.16 66.18 441.35 67.08C441.54 67.98 441.64 68.98 441.64 70.08V80.99H436.77V70.97C436.77 69.51 436.54 68.41 436.08 67.69C435.62 66.97 434.81 66.61 433.64 66.61C432.31 66.61 431.35 67 430.76 67.79C430.17 68.58 429.87 69.88 429.87 71.68V80.98H425V63.25H429.64Z" fill="white"/>
<path d="M202.73 102.37V99.11H205.65V97.74C205.65 96.16 206.14 94.87 207.13 93.86C208.11 92.85 209.6 92.35 211.59 92.35C212.02 92.35 212.46 92.37 212.89 92.4C213.32 92.43 213.75 92.46 214.16 92.49V96.13C213.59 96.06 212.99 96.03 212.38 96.03C211.72 96.03 211.24 96.18 210.96 96.49C210.67 96.8 210.53 97.32 210.53 98.05V99.11H213.89V102.37H210.53V116.85H205.66V102.37H202.73Z" fill="white"/>
<path d="M216.11 104.13C216.54 102.98 217.16 101.99 217.96 101.18C218.76 100.37 219.72 99.74 220.84 99.29C221.96 98.84 223.22 98.62 224.61 98.62C226 98.62 227.27 98.84 228.4 99.29C229.53 99.74 230.5 100.37 231.3 101.18C232.1 101.99 232.72 102.98 233.15 104.13C233.58 105.29 233.8 106.57 233.8 107.99C233.8 109.41 233.58 110.69 233.15 111.83C232.71 112.97 232.1 113.95 231.3 114.76C230.5 115.57 229.53 116.2 228.4 116.63C227.27 117.06 226 117.28 224.61 117.28C223.21 117.28 221.96 117.06 220.84 116.63C219.72 116.2 218.76 115.57 217.96 114.76C217.16 113.95 216.54 112.97 216.11 111.83C215.68 110.69 215.46 109.41 215.46 107.99C215.46 106.58 215.68 105.29 216.11 104.13ZM220.54 110.07C220.68 110.74 220.91 111.35 221.24 111.89C221.57 112.43 222.01 112.86 222.56 113.18C223.11 113.5 223.79 113.66 224.62 113.66C225.45 113.66 226.13 113.5 226.7 113.18C227.26 112.86 227.71 112.43 228.04 111.89C228.37 111.35 228.61 110.75 228.74 110.07C228.88 109.4 228.95 108.7 228.95 107.99C228.95 107.28 228.88 106.58 228.74 105.9C228.6 105.22 228.37 104.61 228.04 104.08C227.71 103.55 227.26 103.13 226.7 102.79C226.14 102.46 225.45 102.29 224.62 102.29C223.79 102.29 223.11 102.46 222.56 102.79C222.01 103.12 221.57 103.55 221.24 104.08C220.91 104.61 220.67 105.21 220.54 105.9C220.41 106.59 220.33 107.28 220.33 107.99C220.33 108.7 220.4 109.39 220.54 110.07Z" fill="white"/>
<path d="M241.6 99.11V102.4H241.67C241.9 101.85 242.21 101.34 242.6 100.87C242.99 100.4 243.43 100 243.94 99.67C244.44 99.34 244.98 99.08 245.55 98.9C246.12 98.72 246.72 98.63 247.33 98.63C247.65 98.63 248 98.69 248.39 98.8V103.33C248.16 103.28 247.89 103.24 247.57 103.21C247.25 103.18 246.94 103.16 246.64 103.16C245.75 103.16 244.99 103.31 244.38 103.61C243.76 103.91 243.27 104.31 242.89 104.83C242.51 105.34 242.24 105.94 242.08 106.63C241.92 107.32 241.84 108.06 241.84 108.86V116.85H236.97V99.11H241.6Z" fill="white"/>
<path d="M267.5 115.54H267.57L276.04 92.35H277.55L268.39 116.84H266.64L257.52 92.35H259.1L267.5 115.54Z" fill="white"/>
<path d="M278.68 95.88V92.35H279.98V95.88H278.68ZM278.68 116.84V99.21H279.98V116.84H278.68Z" fill="white"/>
<path d="M284.75 110.98C284.8 111.8 284.98 112.53 285.3 113.16C285.62 113.79 286.04 114.33 286.55 114.77C287.06 115.22 287.66 115.55 288.35 115.78C289.04 116.01 289.78 116.12 290.58 116.12C291.15 116.12 291.76 116.07 292.42 115.97C293.07 115.87 293.68 115.68 294.24 115.4C294.8 115.13 295.26 114.74 295.63 114.25C296 113.76 296.18 113.14 296.18 112.38C296.18 111.4 295.88 110.65 295.29 110.15C294.7 109.65 293.95 109.26 293.04 108.98C292.13 108.7 291.16 108.48 290.12 108.31C289.08 108.14 288.11 107.88 287.2 107.54C286.3 107.2 285.55 106.71 284.95 106.08C284.36 105.45 284.06 104.53 284.06 103.32C284.06 102.45 284.25 101.73 284.64 101.14C285.03 100.56 285.53 100.09 286.13 99.75C286.74 99.41 287.42 99.16 288.17 99.01C288.92 98.86 289.68 98.79 290.43 98.79C291.34 98.79 292.2 98.89 293 99.1C293.8 99.31 294.49 99.64 295.08 100.09C295.66 100.55 296.12 101.13 296.45 101.84C296.78 102.55 296.95 103.41 296.95 104.41H295.65C295.65 103.61 295.52 102.92 295.26 102.35C295 101.78 294.63 101.32 294.16 100.96C293.69 100.61 293.14 100.34 292.5 100.17C291.86 100 291.17 99.91 290.44 99.91C289.85 99.91 289.25 99.97 288.64 100.08C288.03 100.19 287.49 100.39 287.01 100.66C286.53 100.93 286.14 101.29 285.83 101.72C285.52 102.15 285.37 102.68 285.37 103.3C285.37 104.01 285.54 104.58 285.88 105.02C286.22 105.45 286.67 105.8 287.23 106.07C287.79 106.33 288.42 106.54 289.12 106.7C289.82 106.86 290.52 107.02 291.23 107.18C292.1 107.34 292.92 107.53 293.68 107.75C294.45 107.97 295.11 108.26 295.67 108.64C296.23 109.02 296.67 109.5 296.99 110.1C297.31 110.69 297.47 111.45 297.47 112.36C297.47 113.32 297.25 114.11 296.82 114.73C296.39 115.35 295.84 115.84 295.17 116.22C294.51 116.6 293.77 116.86 292.96 117.01C292.15 117.16 291.35 117.23 290.58 117.23C289.57 117.23 288.64 117.1 287.78 116.84C286.92 116.58 286.17 116.18 285.53 115.64C284.89 115.1 284.39 114.45 284.02 113.67C283.65 112.89 283.46 111.99 283.44 110.96H284.75V110.98Z" fill="white"/>
<path d="M314.59 116.84H313.29V113.07H313.22C312.99 113.73 312.66 114.32 312.24 114.84C311.82 115.35 311.33 115.8 310.77 116.16C310.21 116.53 309.6 116.8 308.93 116.98C308.27 117.16 307.59 117.25 306.91 117.25C305.88 117.25 305.01 117.12 304.29 116.87C303.57 116.62 302.98 116.29 302.52 115.88C302.06 115.47 301.7 115.01 301.44 114.49C301.18 113.98 300.99 113.46 300.87 112.93C300.76 112.4 300.69 111.9 300.66 111.4C300.64 110.91 300.63 110.48 300.63 110.11V99.21H301.93V110.36C301.93 110.82 301.96 111.37 302.03 112.02C302.1 112.67 302.3 113.3 302.63 113.91C302.96 114.52 303.46 115.04 304.12 115.47C304.78 115.9 305.72 116.12 306.93 116.12C307.91 116.12 308.8 115.94 309.59 115.57C310.38 115.2 311.05 114.7 311.6 114.04C312.15 113.38 312.57 112.61 312.85 111.71C313.14 110.81 313.28 109.82 313.28 108.74V99.2H314.58V116.84H314.59Z" fill="white"/>
<path d="M330.13 113.34H330.06C329.85 113.87 329.56 114.36 329.17 114.83C328.78 115.3 328.31 115.72 327.75 116.08C327.19 116.45 326.55 116.73 325.85 116.94C325.14 117.15 324.36 117.25 323.52 117.25C321.64 117.25 320.19 116.84 319.16 116.03C318.13 115.22 317.62 113.97 317.62 112.27C317.62 111.24 317.83 110.4 318.24 109.75C318.65 109.1 319.17 108.58 319.8 108.21C320.43 107.83 321.13 107.56 321.89 107.4C322.66 107.24 323.39 107.13 324.1 107.06L326.12 106.89C327.06 106.82 327.79 106.71 328.33 106.56C328.87 106.41 329.27 106.21 329.55 105.94C329.82 105.68 330 105.34 330.06 104.93C330.13 104.52 330.16 104 330.16 103.39C330.16 102.91 330.07 102.46 329.89 102.05C329.71 101.64 329.42 101.27 329.03 100.95C328.64 100.63 328.14 100.38 327.52 100.2C326.9 100.02 326.15 99.93 325.26 99.93C323.68 99.93 322.41 100.32 321.44 101.1C320.47 101.88 319.94 103.06 319.84 104.63H318.54C318.63 102.69 319.25 101.23 320.41 100.26C321.56 99.29 323.21 98.8 325.33 98.8C327.46 98.8 329.01 99.22 329.98 100.05C330.95 100.89 331.44 101.98 331.44 103.33V113.59C331.44 113.84 331.45 114.09 331.46 114.34C331.47 114.59 331.51 114.82 331.58 115.03C331.65 115.24 331.76 115.4 331.92 115.53C332.08 115.66 332.31 115.72 332.61 115.72C332.84 115.72 333.16 115.69 333.57 115.62V116.72C333.23 116.81 332.87 116.86 332.51 116.86C331.98 116.86 331.57 116.79 331.26 116.65C330.95 116.51 330.72 116.33 330.56 116.1C330.4 115.87 330.29 115.6 330.23 115.29C330.17 114.98 330.14 114.64 330.14 114.28V113.34H330.13ZM330.13 106.83C329.81 107.22 329.32 107.48 328.67 107.62C328.02 107.76 327.29 107.86 326.49 107.93L324.29 108.14C323.65 108.21 323.01 108.31 322.37 108.43C321.73 108.56 321.15 108.77 320.64 109.06C320.13 109.36 319.71 109.76 319.39 110.28C319.07 110.79 318.91 111.46 318.91 112.29C318.91 113.59 319.32 114.56 320.14 115.19C320.96 115.82 322.1 116.13 323.54 116.13C325.03 116.13 326.2 115.86 327.07 115.32C327.94 114.78 328.6 114.17 329.06 113.47C329.52 112.77 329.81 112.1 329.94 111.45C330.07 110.8 330.13 110.36 330.13 110.13V106.83Z" fill="white"/>
<path d="M337.2 92.35V116.84H335.9V92.35H337.2Z" fill="white"/>
<path d="M367.11 99.35C367.06 98.3 366.84 97.38 366.44 96.61C366.04 95.83 365.5 95.18 364.81 94.65C364.12 94.12 363.31 93.73 362.36 93.47C361.41 93.21 360.38 93.08 359.26 93.08C358.57 93.08 357.84 93.16 357.05 93.32C356.26 93.48 355.53 93.76 354.85 94.16C354.18 94.56 353.62 95.1 353.19 95.77C352.76 96.44 352.54 97.29 352.54 98.29C352.54 99.27 352.78 100.07 353.26 100.69C353.74 101.31 354.37 101.8 355.15 102.18C355.93 102.56 356.82 102.86 357.83 103.09C358.84 103.32 359.85 103.54 360.88 103.74C361.93 103.95 362.96 104.19 363.95 104.48C364.94 104.77 365.84 105.15 366.63 105.65C367.42 106.14 368.05 106.78 368.53 107.57C369.01 108.36 369.25 109.35 369.25 110.54C369.25 111.82 368.98 112.9 368.43 113.76C367.88 114.63 367.19 115.34 366.35 115.89C365.51 116.44 364.59 116.83 363.57 117.07C362.55 117.31 361.57 117.43 360.64 117.43C359.2 117.43 357.85 117.28 356.59 116.97C355.33 116.66 354.23 116.16 353.3 115.46C352.36 114.76 351.62 113.86 351.09 112.77C350.56 111.68 350.3 110.33 350.32 108.76H351.83C351.76 110.11 351.96 111.25 352.41 112.17C352.87 113.1 353.5 113.86 354.31 114.45C355.12 115.04 356.08 115.47 357.17 115.74C358.27 116 359.42 116.13 360.63 116.13C361.36 116.13 362.14 116.04 362.98 115.86C363.81 115.68 364.58 115.37 365.28 114.93C365.98 114.5 366.56 113.92 367.03 113.21C367.5 112.5 367.73 111.61 367.73 110.53C367.73 109.5 367.49 108.66 367.01 108.01C366.53 107.36 365.89 106.83 365.11 106.43C364.32 106.03 363.43 105.71 362.43 105.47C361.44 105.23 360.41 105.01 359.36 104.8C358.33 104.59 357.31 104.35 356.31 104.08C355.3 103.81 354.41 103.43 353.63 102.97C352.85 102.5 352.22 101.9 351.74 101.15C351.26 100.41 351.02 99.45 351.02 98.29C351.02 97.12 351.27 96.12 351.76 95.29C352.25 94.46 352.89 93.78 353.68 93.27C354.47 92.76 355.35 92.38 356.34 92.14C357.32 91.9 358.3 91.78 359.26 91.78C360.54 91.78 361.74 91.92 362.84 92.21C363.95 92.5 364.92 92.94 365.76 93.55C366.59 94.16 367.26 94.94 367.77 95.9C368.27 96.86 368.56 98.02 368.63 99.36H367.11V99.35Z" fill="white"/>
<path d="M378.84 100.34H375V112.65C375 113.36 375.08 113.92 375.24 114.33C375.4 114.74 375.65 115.06 375.98 115.27C376.31 115.49 376.71 115.62 377.18 115.66C377.65 115.71 378.19 115.72 378.81 115.69V116.82C378.15 116.87 377.5 116.86 376.87 116.8C376.24 116.74 375.69 116.57 375.21 116.29C374.73 116 374.35 115.58 374.06 115C373.77 114.43 373.65 113.64 373.7 112.63V100.32H370.44V99.19H373.7V93.7H375V99.19H378.84V100.34Z" fill="white"/>
<path d="M395.2 116.84H393.9V113.07H393.83C393.6 113.73 393.27 114.32 392.85 114.84C392.43 115.35 391.94 115.8 391.38 116.16C390.82 116.53 390.21 116.8 389.54 116.98C388.88 117.16 388.2 117.25 387.52 117.25C386.49 117.25 385.62 117.12 384.9 116.87C384.18 116.62 383.59 116.29 383.13 115.88C382.67 115.47 382.31 115.01 382.05 114.49C381.79 113.98 381.6 113.46 381.48 112.93C381.37 112.4 381.3 111.9 381.27 111.4C381.25 110.91 381.24 110.48 381.24 110.11V99.21H382.54V110.36C382.54 110.82 382.57 111.37 382.64 112.02C382.71 112.67 382.91 113.3 383.24 113.91C383.57 114.52 384.07 115.04 384.73 115.47C385.39 115.9 386.33 116.12 387.54 116.12C388.52 116.12 389.41 115.94 390.2 115.57C390.99 115.2 391.66 114.7 392.21 114.04C392.76 113.38 393.18 112.61 393.46 111.71C393.75 110.81 393.89 109.82 393.89 108.74V99.2H395.19V116.84H395.2Z" fill="white"/>
<path d="M412.66 113.07H412.59C411.86 114.47 410.94 115.51 409.85 116.21C408.75 116.91 407.41 117.26 405.84 117.26C404.51 117.26 403.37 117.01 402.41 116.51C401.45 116.01 400.66 115.33 400.04 114.49C399.42 113.64 398.96 112.67 398.67 111.56C398.37 110.45 398.22 109.29 398.22 108.08C398.22 106.78 398.38 105.56 398.7 104.43C399.02 103.3 399.51 102.32 400.16 101.5C400.81 100.68 401.63 100.03 402.61 99.54C403.59 99.06 404.75 98.82 406.07 98.82C406.78 98.82 407.48 98.92 408.16 99.11C408.85 99.3 409.48 99.58 410.06 99.95C410.64 100.32 411.15 100.77 411.59 101.32C412.02 101.87 412.36 102.49 412.59 103.17H412.66V92.35H413.96V116.84H412.66V113.07ZM406.11 116.12C407.23 116.12 408.2 115.89 409.01 115.43C409.82 114.97 410.5 114.37 411.03 113.61C411.57 112.86 411.97 111.99 412.23 111.02C412.49 110.05 412.62 109.06 412.62 108.05C412.62 107.02 412.49 106.02 412.23 105.05C411.97 104.08 411.57 103.21 411.05 102.44C410.52 101.67 409.84 101.06 409.01 100.6C408.18 100.14 407.2 99.91 406.08 99.91C404.91 99.91 403.92 100.13 403.1 100.58C402.28 101.03 401.6 101.63 401.06 102.38C400.52 103.13 400.13 104 399.89 104.99C399.65 105.97 399.53 106.99 399.53 108.04C399.53 109.07 399.66 110.07 399.92 111.04C400.18 112.01 400.58 112.88 401.12 113.63C401.66 114.38 402.34 114.98 403.16 115.43C403.99 115.9 404.97 116.12 406.11 116.12Z" fill="white"/>
<path d="M418.43 95.88V92.35H419.73V95.88H418.43ZM418.43 116.84V99.21H419.73V116.84H418.43Z" fill="white"/>
<path d="M423.06 108.03C423.06 106.77 423.24 105.59 423.59 104.48C423.94 103.37 424.46 102.39 425.15 101.55C425.84 100.7 426.68 100.04 427.69 99.54C428.7 99.05 429.85 98.8 431.15 98.8C432.45 98.8 433.61 99.05 434.61 99.54C435.62 100.03 436.46 100.7 437.15 101.55C437.84 102.4 438.36 103.37 438.71 104.48C439.06 105.59 439.24 106.77 439.24 108.03C439.24 109.29 439.06 110.48 438.71 111.6C438.36 112.72 437.84 113.7 437.15 114.53C436.46 115.36 435.62 116.03 434.61 116.52C433.6 117.01 432.45 117.26 431.15 117.26C429.85 117.26 428.69 117.01 427.69 116.52C426.68 116.03 425.84 115.37 425.15 114.53C424.46 113.7 423.94 112.72 423.59 111.6C423.23 110.48 423.06 109.29 423.06 108.03ZM424.36 108.03C424.36 109.08 424.51 110.09 424.81 111.07C425.11 112.04 425.54 112.91 426.11 113.66C426.68 114.41 427.39 115.01 428.24 115.46C429.09 115.91 430.06 116.13 431.16 116.13C432.26 116.13 433.23 115.91 434.08 115.46C434.93 115.01 435.63 114.41 436.21 113.66C436.78 112.91 437.22 112.04 437.51 111.07C437.81 110.1 437.96 109.09 437.96 108.03C437.96 106.98 437.81 105.97 437.51 104.99C437.21 104.02 436.78 103.15 436.21 102.4C435.64 101.65 434.93 101.05 434.08 100.6C433.23 100.15 432.26 99.93 431.16 99.93C430.06 99.93 429.09 100.15 428.24 100.6C427.39 101.05 426.68 101.65 426.11 102.4C425.54 103.15 425.1 104.02 424.81 104.99C424.51 105.96 424.36 106.98 424.36 108.03Z" fill="white"/>
<path d="M451.15 104.6C451.15 102.82 451.41 101.14 451.94 99.57C452.47 98 453.23 96.64 454.22 95.49C455.21 94.34 456.44 93.43 457.89 92.76C459.34 92.1 460.98 91.77 462.81 91.77C464.25 91.77 465.5 91.96 466.55 92.34C467.6 92.72 468.49 93.19 469.21 93.75C469.93 94.31 470.52 94.92 470.98 95.59C471.44 96.25 471.79 96.88 472.03 97.46C472.27 98.04 472.44 98.55 472.53 98.97C472.62 99.39 472.67 99.63 472.67 99.67H471.16C471 98.64 470.67 97.72 470.17 96.91C469.67 96.1 469.04 95.41 468.28 94.83C467.53 94.26 466.68 93.82 465.76 93.53C464.83 93.23 463.86 93.08 462.83 93.08C461.23 93.08 459.8 93.39 458.54 94.01C457.28 94.63 456.22 95.46 455.35 96.5C454.48 97.54 453.82 98.76 453.36 100.15C452.9 101.55 452.67 103.03 452.67 104.61C452.67 106.19 452.9 107.67 453.36 109.07C453.82 110.47 454.48 111.68 455.35 112.72C456.22 113.76 457.28 114.59 458.54 115.21C459.8 115.83 461.23 116.14 462.83 116.14C464.02 116.14 465.13 115.89 466.17 115.4C467.21 114.91 468.12 114.26 468.9 113.44C469.68 112.63 470.3 111.69 470.77 110.63C471.24 109.57 471.51 108.46 471.58 107.32H473.09C472.95 108.78 472.59 110.13 472.01 111.37C471.43 112.61 470.68 113.67 469.78 114.58C468.88 115.48 467.83 116.19 466.64 116.69C465.45 117.19 464.18 117.44 462.83 117.44C461 117.44 459.36 117.11 457.91 116.45C456.46 115.79 455.23 114.88 454.24 113.72C453.24 112.57 452.48 111.2 451.96 109.64C451.41 108.06 451.15 106.38 451.15 104.6Z" fill="white"/>
<path d="M475.16 108.03C475.16 106.77 475.34 105.59 475.69 104.48C476.04 103.37 476.56 102.39 477.25 101.55C477.94 100.7 478.78 100.04 479.79 99.54C480.8 99.05 481.95 98.8 483.25 98.8C484.55 98.8 485.71 99.05 486.71 99.54C487.72 100.03 488.56 100.7 489.25 101.55C489.94 102.4 490.46 103.37 490.81 104.48C491.16 105.59 491.34 106.77 491.34 108.03C491.34 109.29 491.16 110.48 490.81 111.6C490.46 112.72 489.94 113.7 489.25 114.53C488.56 115.36 487.72 116.03 486.71 116.52C485.7 117.01 484.55 117.26 483.25 117.26C481.95 117.26 480.79 117.01 479.79 116.52C478.78 116.03 477.94 115.37 477.25 114.53C476.56 113.7 476.04 112.72 475.69 111.6C475.34 110.48 475.16 109.29 475.16 108.03ZM476.47 108.03C476.47 109.08 476.62 110.09 476.92 111.07C477.22 112.04 477.65 112.91 478.22 113.66C478.79 114.41 479.5 115.01 480.35 115.46C481.2 115.91 482.17 116.13 483.27 116.13C484.37 116.13 485.34 115.91 486.19 115.46C487.04 115.01 487.74 114.41 488.32 113.66C488.89 112.91 489.33 112.04 489.62 111.07C489.92 110.1 490.07 109.09 490.07 108.03C490.07 106.98 489.92 105.97 489.62 104.99C489.32 104.02 488.89 103.15 488.32 102.4C487.75 101.65 487.04 101.05 486.19 100.6C485.34 100.15 484.37 99.93 483.27 99.93C482.17 99.93 481.2 100.15 480.35 100.6C479.5 101.05 478.79 101.65 478.22 102.4C477.65 103.15 477.21 104.02 476.92 104.99C476.61 105.96 476.47 106.98 476.47 108.03Z" fill="white"/>
<path d="M508.02 113.07H507.95C507.22 114.47 506.3 115.51 505.21 116.21C504.11 116.91 502.77 117.26 501.2 117.26C499.87 117.26 498.73 117.01 497.77 116.51C496.81 116.01 496.02 115.33 495.4 114.49C494.78 113.64 494.32 112.67 494.03 111.56C493.73 110.45 493.58 109.29 493.58 108.08C493.58 106.78 493.74 105.56 494.06 104.43C494.38 103.3 494.87 102.32 495.52 101.5C496.17 100.68 496.99 100.03 497.97 99.54C498.95 99.06 500.11 98.82 501.43 98.82C502.14 98.82 502.84 98.92 503.52 99.11C504.21 99.3 504.84 99.58 505.42 99.95C506 100.32 506.51 100.77 506.95 101.32C507.38 101.87 507.72 102.49 507.95 103.17H508.02V92.35H509.32V116.84H508.02V113.07ZM501.47 116.12C502.59 116.12 503.56 115.89 504.37 115.43C505.18 114.97 505.86 114.37 506.39 113.61C506.93 112.86 507.33 111.99 507.59 111.02C507.85 110.05 507.98 109.06 507.98 108.05C507.98 107.02 507.85 106.02 507.59 105.05C507.33 104.08 506.93 103.21 506.41 102.44C505.88 101.67 505.2 101.06 504.37 100.6C503.54 100.14 502.56 99.91 501.44 99.91C500.27 99.91 499.28 100.13 498.46 100.58C497.64 101.03 496.96 101.63 496.42 102.38C495.88 103.13 495.49 104 495.25 104.99C495.01 105.97 494.89 106.99 494.89 108.04C494.89 109.07 495.02 110.07 495.28 111.04C495.54 112.01 495.94 112.88 496.48 113.63C497.02 114.38 497.7 114.98 498.52 115.43C499.35 115.9 500.33 116.12 501.47 116.12Z" fill="white"/>
<path d="M513.96 108.2V108.41C513.96 109.44 514.1 110.42 514.37 111.36C514.64 112.3 515.05 113.12 515.59 113.83C516.13 114.54 516.81 115.1 517.62 115.51C518.43 115.92 519.38 116.13 520.46 116.13C522.23 116.13 523.62 115.67 524.66 114.74C525.7 113.81 526.4 112.53 526.79 110.88H528.09C527.7 112.94 526.86 114.52 525.57 115.61C524.28 116.71 522.57 117.26 520.44 117.26C519.14 117.26 518 117.03 517.03 116.56C516.06 116.09 515.25 115.45 514.59 114.64C513.94 113.83 513.45 112.87 513.13 111.76C512.81 110.65 512.65 109.46 512.65 108.18C512.65 106.94 512.82 105.76 513.15 104.63C513.48 103.5 513.98 102.5 514.64 101.65C515.3 100.79 516.13 100.11 517.13 99.59C518.12 99.08 519.3 98.82 520.65 98.82C521.88 98.82 522.98 99.05 523.93 99.51C524.88 99.97 525.67 100.59 526.31 101.38C526.95 102.17 527.44 103.08 527.77 104.12C528.1 105.16 528.27 106.28 528.27 107.46C528.27 107.57 528.26 107.71 528.25 107.85C528.24 108 528.23 108.12 528.23 108.21H513.96V108.2ZM526.92 107.07C526.87 106.11 526.71 105.2 526.44 104.34C526.16 103.48 525.76 102.73 525.22 102.08C524.68 101.43 524.03 100.91 523.26 100.52C522.49 100.13 521.61 99.94 520.63 99.94C519.57 99.94 518.65 100.14 517.84 100.54C517.04 100.94 516.36 101.47 515.81 102.12C515.26 102.77 514.84 103.53 514.54 104.4C514.24 105.27 514.06 106.16 513.99 107.08H526.92V107.07Z" fill="white"/>
<path d="M698.04 16.79H579.01C575.696 16.79 573.01 19.4763 573.01 22.79V141.82C573.01 145.134 575.696 147.82 579.01 147.82H698.04C701.354 147.82 704.04 145.134 704.04 141.82V22.79C704.04 19.4763 701.354 16.79 698.04 16.79Z" fill="url(#paint0_linear_4_1250)"/>
<path d="M704.04 33.5H615.81C613.28 33.5 611.23 31.45 611.23 28.92V16.79H698.04C701.354 16.79 704.04 19.4763 704.04 22.79V33.5Z" fill="url(#paint1_linear_4_1250)"/>
<path d="M704.04 131.1H573.01V141.81C573.01 145.124 575.696 147.81 579.01 147.81H698.04C701.354 147.81 704.04 145.124 704.04 141.81V131.1Z" fill="url(#paint2_linear_4_1250)"/>
<path d="M580.33 49.12C579.13 49.12 578.16 48.15 578.16 46.95V42.61C578.16 41.41 579.13 40.44 580.33 40.44C581.53 40.44 582.5 41.41 582.5 42.61V46.95C582.5 48.15 581.53 49.12 580.33 49.12Z" fill="url(#paint3_linear_4_1250)"/>
<path d="M580.33 61.52C579.13 61.52 578.16 60.55 578.16 59.35V55.01C578.16 53.81 579.13 52.84 580.33 52.84C581.53 52.84 582.5 53.81 582.5 55.01V59.35C582.5 60.55 581.53 61.52 580.33 61.52Z" fill="url(#paint4_linear_4_1250)"/>
<path d="M580.33 73.92C579.13 73.92 578.16 72.95 578.16 71.75V67.41C578.16 66.21 579.13 65.24 580.33 65.24C581.53 65.24 582.5 66.21 582.5 67.41V71.75C582.5 72.95 581.53 73.92 580.33 73.92Z" fill="url(#paint5_linear_4_1250)"/>
<path d="M580.33 86.32C579.13 86.32 578.16 85.35 578.16 84.15V79.81C578.16 78.61 579.13 77.64 580.33 77.64C581.53 77.64 582.5 78.61 582.5 79.81V84.15C582.5 85.35 581.53 86.32 580.33 86.32Z" fill="url(#paint6_linear_4_1250)"/>
<path d="M580.33 98.72C579.13 98.72 578.16 97.75 578.16 96.55V92.21C578.16 91.01 579.13 90.04 580.33 90.04C581.53 90.04 582.5 91.01 582.5 92.21V96.55C582.5 97.75 581.53 98.72 580.33 98.72Z" fill="url(#paint7_linear_4_1250)"/>
<path d="M580.33 111.12C579.13 111.12 578.16 110.15 578.16 108.95V104.61C578.16 103.41 579.13 102.44 580.33 102.44C581.53 102.44 582.5 103.41 582.5 104.61V108.95C582.5 110.15 581.53 111.12 580.33 111.12Z" fill="url(#paint8_linear_4_1250)"/>
<path d="M599.24 48.7099H598.83C596.55 48.7099 594.7 46.86 594.7 44.58C594.7 42.3 596.55 40.45 598.83 40.45H599.24C601.52 40.45 603.37 42.3 603.37 44.58C603.37 46.86 601.52 48.7099 599.24 48.7099Z" fill="white"/>
<path d="M621.77 48.7099H609.16C606.88 48.7099 605.03 46.86 605.03 44.58C605.03 42.3 606.88 40.45 609.16 40.45H621.77C624.05 40.45 625.9 42.3 625.9 44.58C625.9 46.86 624.05 48.7099 621.77 48.7099Z" fill="url(#paint9_linear_4_1250)"/>
<path d="M581.48 128.62H579.19C578.62 128.62 578.16 128.16 578.16 127.59C578.16 127.02 578.62 126.56 579.19 126.56H581.48C582.05 126.56 582.51 127.02 582.51 127.59C582.5 128.16 582.04 128.62 581.48 128.62Z" fill="url(#paint10_linear_4_1250)"/>
<path d="M600.99 29.49H582.5C580.1 29.49 578.16 27.55 578.16 25.15C578.16 22.75 580.1 20.81 582.5 20.81H600.99C603.39 20.81 605.33 22.75 605.33 25.15C605.33 27.55 603.38 29.49 600.99 29.49Z" fill="url(#paint11_linear_4_1250)"/>
<path d="M637.32 29.49H621.32C618.92 29.49 616.98 27.55 616.98 25.15C616.98 22.75 618.92 20.81 621.32 20.81H637.32C639.72 20.81 641.66 22.75 641.66 25.15C641.66 27.55 639.72 29.49 637.32 29.49Z" fill="url(#paint12_linear_4_1250)"/>
<path d="M600.99 143.8H582.5C580.1 143.8 578.16 141.86 578.16 139.46C578.16 137.06 580.1 135.12 582.5 135.12H600.99C603.39 135.12 605.33 137.06 605.33 139.46C605.33 141.86 603.38 143.8 600.99 143.8Z" fill="url(#paint13_linear_4_1250)"/>
<path d="M654.13 48.7099H649C646.72 48.7099 644.87 46.86 644.87 44.58C644.87 42.3 646.72 40.45 649 40.45H654.13C656.41 40.45 658.26 42.3 658.26 44.58C658.26 46.86 656.41 48.7099 654.13 48.7099Z" fill="url(#paint14_linear_4_1250)"/>
<path d="M695.95 48.7099H664.05C661.77 48.7099 659.92 46.86 659.92 44.58C659.92 42.3 661.77 40.45 664.05 40.45H695.95C698.23 40.45 700.08 42.3 700.08 44.58C700.08 46.86 698.23 48.7099 695.95 48.7099Z" fill="white"/>
<path d="M600.27 61.11H597.79C596.08 61.11 594.69 59.72 594.69 58.01C594.69 56.3 596.08 54.91 597.79 54.91H600.27C601.98 54.91 603.37 56.3 603.37 58.01C603.37 59.72 601.99 61.11 600.27 61.11Z" fill="white"/>
<path d="M622.8 61.11H617.57C615.86 61.11 614.47 59.72 614.47 58.01C614.47 56.3 615.86 54.91 617.57 54.91H622.8C624.51 54.91 625.9 56.3 625.9 58.01C625.9 59.72 624.51 61.11 622.8 61.11Z" fill="#051D24"/>
<path d="M655.16 61.11H646.56C644.85 61.11 643.46 59.72 643.46 58.01C643.46 56.3 644.85 54.91 646.56 54.91H655.16C656.87 54.91 658.26 56.3 658.26 58.01C658.26 59.72 656.88 61.11 655.16 61.11Z" fill="url(#paint15_linear_4_1250)"/>
<path d="M696.98 61.11H688.17C686.46 61.11 685.07 59.72 685.07 58.01C685.07 56.3 686.46 54.91 688.17 54.91H696.98C698.69 54.91 700.08 56.3 700.08 58.01C700.08 59.72 698.69 61.11 696.98 61.11Z" fill="url(#paint16_linear_4_1250)"/>
<path d="M600.27 71.44H597.79C596.08 71.44 594.69 70.05 594.69 68.34C594.69 66.63 596.08 65.24 597.79 65.24H600.27C601.98 65.24 603.37 66.63 603.37 68.34C603.37 70.05 601.99 71.44 600.27 71.44Z" fill="url(#paint17_linear_4_1250)"/>
<path d="M622.8 71.44H612.79C611.08 71.44 609.69 70.05 609.69 68.34C609.69 66.63 611.08 65.24 612.79 65.24H622.8C624.51 65.24 625.9 66.63 625.9 68.34C625.9 70.05 624.51 71.44 622.8 71.44Z" fill="url(#paint18_linear_4_1250)"/>
<path d="M655.16 71.44H630.65C628.94 71.44 627.55 70.05 627.55 68.34C627.55 66.63 628.94 65.24 630.65 65.24H655.16C656.87 65.24 658.26 66.63 658.26 68.34C658.26 70.05 656.88 71.44 655.16 71.44Z" fill="url(#paint19_linear_4_1250)"/>
<path d="M696.98 71.44H675.55C673.84 71.44 672.45 70.05 672.45 68.34C672.45 66.63 673.84 65.24 675.55 65.24H696.98C698.69 65.24 700.08 66.63 700.08 68.34C700.08 70.05 698.69 71.44 696.98 71.44Z" fill="white"/>
<path d="M600.27 81.77H597.79C596.08 81.77 594.69 80.38 594.69 78.67C594.69 76.96 596.08 75.57 597.79 75.57H600.27C601.98 75.57 603.37 76.96 603.37 78.67C603.37 80.38 601.99 81.77 600.27 81.77Z" fill="white"/>
<path d="M622.8 81.77H620.32C618.61 81.77 617.22 80.38 617.22 78.67C617.22 76.96 618.61 75.57 620.32 75.57H622.8C624.51 75.57 625.9 76.96 625.9 78.67C625.9 80.38 624.51 81.77 622.8 81.77Z" fill="white"/>
<path d="M655.16 81.77H640.72C639.01 81.77 637.62 80.38 637.62 78.67C637.62 76.96 639.01 75.57 640.72 75.57H655.16C656.87 75.57 658.26 76.96 658.26 78.67C658.26 80.38 656.88 81.77 655.16 81.77Z" fill="white"/>
<path d="M696.98 81.77H670.87C669.16 81.77 667.77 80.38 667.77 78.67C667.77 76.96 669.16 75.57 670.87 75.57H696.98C698.69 75.57 700.08 76.96 700.08 78.67C700.08 80.38 698.69 81.77 696.98 81.77Z" fill="url(#paint20_linear_4_1250)"/>
<path d="M600.27 92.11H597.79C596.08 92.11 594.69 90.72 594.69 89.01C594.69 87.3 596.08 85.91 597.79 85.91H600.27C601.98 85.91 603.37 87.3 603.37 89.01C603.37 90.72 601.99 92.11 600.27 92.11Z" fill="white"/>
<path d="M622.8 92.11H608.13C606.42 92.11 605.03 90.72 605.03 89.01C605.03 87.3 606.42 85.91 608.13 85.91H622.8C624.51 85.91 625.9 87.3 625.9 89.01C625.9 90.72 624.51 92.11 622.8 92.11Z" fill="#051D24"/>
<path d="M655.16 92.11H644.76C643.05 92.11 641.66 90.72 641.66 89.01C641.66 87.3 643.05 85.91 644.76 85.91H655.16C656.87 85.91 658.26 87.3 658.26 89.01C658.26 90.72 656.88 92.11 655.16 92.11Z" fill="url(#paint21_linear_4_1250)"/>
<path d="M696.98 92.11H665.44C663.73 92.11 662.34 90.72 662.34 89.01C662.34 87.3 663.73 85.91 665.44 85.91H696.98C698.69 85.91 700.08 87.3 700.08 89.01C700.08 90.72 698.69 92.11 696.98 92.11Z" fill="white"/>
<path d="M600.27 102.44H597.79C596.08 102.44 594.69 101.05 594.69 99.34C594.69 97.63 596.08 96.24 597.79 96.24H600.27C601.98 96.24 603.37 97.63 603.37 99.34C603.37 101.05 601.99 102.44 600.27 102.44Z" fill="url(#paint22_linear_4_1250)"/>
<path d="M622.8 102.44H610.36C608.65 102.44 607.26 101.05 607.26 99.34C607.26 97.63 608.65 96.24 610.36 96.24H622.8C624.51 96.24 625.9 97.63 625.9 99.34C625.9 101.05 624.51 102.44 622.8 102.44Z" fill="url(#paint23_linear_4_1250)"/>
<path d="M655.16 102.44H649.69C647.98 102.44 646.59 101.05 646.59 99.34C646.59 97.63 647.98 96.24 649.69 96.24H655.16C656.87 96.24 658.26 97.63 658.26 99.34C658.26 101.05 656.88 102.44 655.16 102.44Z" fill="white"/>
<path d="M696.98 102.44H676.19C674.48 102.44 673.09 101.05 673.09 99.34C673.09 97.63 674.48 96.24 676.19 96.24H696.98C698.69 96.24 700.08 97.63 700.08 99.34C700.08 101.05 698.69 102.44 696.98 102.44Z" fill="white"/>
<path d="M600.27 112.77H597.79C596.08 112.77 594.69 111.38 594.69 109.67C594.69 107.96 596.08 106.57 597.79 106.57H600.27C601.98 106.57 603.37 107.96 603.37 109.67C603.37 111.38 601.99 112.77 600.27 112.77Z" fill="white"/>
<path d="M622.83 112.77H614.31C612.61 112.77 611.23 111.39 611.23 109.69V109.64C611.23 107.94 612.61 106.56 614.31 106.56H622.83C624.53 106.56 625.91 107.94 625.91 109.64V109.69C625.9 111.4 624.52 112.77 622.83 112.77Z" fill="url(#paint24_linear_4_1250)"/>
<path d="M655.16 112.77H652.68C650.97 112.77 649.58 111.38 649.58 109.67C649.58 107.96 650.97 106.57 652.68 106.57H655.16C656.87 106.57 658.26 107.96 658.26 109.67C658.26 111.38 656.88 112.77 655.16 112.77Z" fill="url(#paint25_linear_4_1250)"/>
<path d="M696.98 112.77H663.02C661.31 112.77 659.92 111.38 659.92 109.67C659.92 107.96 661.31 106.57 663.02 106.57H696.98C698.69 106.57 700.08 107.96 700.08 109.67C700.08 111.38 698.69 112.77 696.98 112.77Z" fill="#051D24"/>
<path d="M600.27 123.11H597.79C596.08 123.11 594.69 121.72 594.69 120.01C594.69 118.3 596.08 116.91 597.79 116.91H600.27C601.98 116.91 603.37 118.3 603.37 120.01C603.37 121.72 601.99 123.11 600.27 123.11Z" fill="white"/>
<path d="M622.8 123.11H618.56C616.85 123.11 615.46 121.72 615.46 120.01C615.46 118.3 616.85 116.91 618.56 116.91H622.8C624.51 116.91 625.9 118.3 625.9 120.01C625.9 121.72 624.51 123.11 622.8 123.11Z" fill="#051D24"/>
<path d="M655.16 123.11H647.97C646.26 123.11 644.87 121.72 644.87 120.01C644.87 118.3 646.26 116.91 647.97 116.91H655.16C656.87 116.91 658.26 118.3 658.26 120.01C658.26 121.72 656.88 123.11 655.16 123.11Z" fill="#051D24"/>
<path d="M696.98 123.11H685.47C683.76 123.11 682.37 121.72 682.37 120.01C682.37 118.3 683.76 116.91 685.47 116.91H696.98C698.69 116.91 700.08 118.3 700.08 120.01C700.08 121.72 698.69 123.11 696.98 123.11Z" fill="white"/>
<path d="M698.51 143.8H698.1C697.23 143.8 696.53 143.1 696.53 142.23V136.69C696.53 135.82 697.23 135.12 698.1 135.12H698.51C699.38 135.12 700.08 135.82 700.08 136.69V142.23C700.08 143.1 699.38 143.8 698.51 143.8Z" fill="url(#paint26_linear_4_1250)"/>
<path d="M699.53 51.81H595.25C594.95 51.81 594.7 51.56 594.7 51.26C594.7 50.96 594.95 50.71 595.25 50.71H699.53C699.83 50.71 700.08 50.96 700.08 51.26C700.08 51.56 699.83 51.81 699.53 51.81Z" fill="white"/>
<g filter="url(#filter0_d_4_1250)">
<path d="M779.88 73.33H686.34C683.026 73.33 680.34 76.0163 680.34 79.33V127.04C680.34 130.354 683.026 133.04 686.34 133.04H779.88C783.194 133.04 785.88 130.354 785.88 127.04V79.33C785.88 76.0163 783.194 73.33 779.88 73.33Z" fill="white"/>
</g>
<path d="M743.37 81.46V118.32" stroke="black" stroke-width="0.8267" stroke-miterlimit="10" stroke-linecap="round" stroke-linejoin="round"/>
<path d="M686.97 88.94C686.51 88.94 686.14 88.57 686.14 88.11V81.08C686.14 80.62 686.51 80.25 686.97 80.25C687.43 80.25 687.8 80.62 687.8 81.08V88.11C687.79 88.57 687.42 88.94 686.97 88.94Z" fill="url(#paint27_linear_4_1250)"/>
<path d="M686.97 101.34C686.51 101.34 686.14 100.97 686.14 100.51V93.48C686.14 93.02 686.51 92.65 686.97 92.65C687.43 92.65 687.8 93.02 687.8 93.48V100.51C687.79 100.97 687.42 101.34 686.97 101.34Z" fill="url(#paint28_linear_4_1250)"/>
<path d="M686.97 113.74C686.51 113.74 686.14 113.37 686.14 112.91V105.88C686.14 105.42 686.51 105.05 686.97 105.05C687.43 105.05 687.8 105.42 687.8 105.88V112.91C687.79 113.37 687.42 113.74 686.97 113.74Z" fill="url(#paint29_linear_4_1250)"/>
<path d="M686.97 126.14C686.51 126.14 686.14 125.77 686.14 125.31V118.28C686.14 117.82 686.51 117.45 686.97 117.45C687.43 117.45 687.8 117.82 687.8 118.28V125.31C687.79 125.77 687.42 126.14 686.97 126.14Z" fill="url(#paint30_linear_4_1250)"/>
<path d="M731.95 126.97C731.95 126.51 732.32 126.14 732.78 126.14H739.81C740.27 126.14 740.64 126.51 740.64 126.97C740.64 127.43 740.27 127.8 739.81 127.8H732.78C732.32 127.8 731.95 127.43 731.95 126.97Z" fill="url(#paint31_linear_4_1250)"/>
<path d="M719.55 126.97C719.55 126.51 719.92 126.14 720.38 126.14H727.41C727.87 126.14 728.24 126.51 728.24 126.97C728.24 127.43 727.87 127.8 727.41 127.8H720.38C719.92 127.8 719.55 127.43 719.55 126.97Z" fill="url(#paint32_linear_4_1250)"/>
<path d="M707.15 126.97C707.15 126.51 707.52 126.14 707.98 126.14H715.01C715.47 126.14 715.84 126.51 715.84 126.97C715.84 127.43 715.47 127.8 715.01 127.8H707.98C707.52 127.8 707.15 127.43 707.15 126.97Z" fill="url(#paint33_linear_4_1250)"/>
<path d="M694.75 126.97C694.75 126.51 695.12 126.14 695.58 126.14H702.61C703.07 126.14 703.44 126.51 703.44 126.97C703.44 127.43 703.07 127.8 702.61 127.8H695.58C695.12 127.8 694.75 127.43 694.75 126.97Z" fill="url(#paint34_linear_4_1250)"/>
<path d="M768.44 126.97C768.44 126.51 768.81 126.14 769.27 126.14H776.3C776.76 126.14 777.13 126.51 777.13 126.97C777.13 127.43 776.76 127.8 776.3 127.8H769.27C768.81 127.8 768.44 127.43 768.44 126.97Z" fill="url(#paint35_linear_4_1250)"/>
<path d="M756.04 126.97C756.04 126.51 756.41 126.14 756.87 126.14H763.9C764.36 126.14 764.73 126.51 764.73 126.97C764.73 127.43 764.36 127.8 763.9 127.8H756.87C756.41 127.8 756.04 127.43 756.04 126.97Z" fill="url(#paint36_linear_4_1250)"/>
<path d="M743.64 126.97C743.64 126.51 744.01 126.14 744.47 126.14H751.5C751.96 126.14 752.33 126.51 752.33 126.97C752.33 127.43 751.96 127.8 751.5 127.8H744.47C744.01 127.8 743.64 127.43 743.64 126.97Z" fill="url(#paint37_linear_4_1250)"/>
<path d="M693.13 117.46L704.361 108.769C706.083 107.436 708.391 107.141 710.393 107.998L717.668 111.11C720.04 112.125 722.796 111.51 724.511 109.581L731.087 102.188C733.519 99.453 737.811 99.5138 740.165 102.316L750.219 114.289C752.981 117.578 758.204 116.985 760.157 113.16L776.35 81.46" stroke="#F16937" stroke-width="2.0666" stroke-miterlimit="10" stroke-linecap="round" stroke-linejoin="round"/>
<path d="M693.13 110.88L704.915 114.847C707.508 115.72 710.364 114.728 711.857 112.436L727.073 89.078C728.323 87.1596 731.205 87.403 732.115 89.5038V89.5038C732.685 90.8199 734.139 91.5135 735.521 91.1288L744.931 88.5089C746.839 87.9776 748.886 88.4223 750.402 89.6973L755.84 94.271C757.377 95.5634 759.458 96.0016 761.385 95.4383L777.12 90.84" stroke="#051D24" stroke-width="2.0666" stroke-miterlimit="10" stroke-linecap="round" stroke-linejoin="round"/>
<path d="M743.37 91.79C744.944 91.79 746.22 90.514 746.22 88.94C746.22 87.366 744.944 86.09 743.37 86.09C741.796 86.09 740.52 87.366 740.52 88.94C740.52 90.514 741.796 91.79 743.37 91.79Z" fill="#051D24"/>
<path d="M743.37 108.89C744.944 108.89 746.22 107.614 746.22 106.04C746.22 104.466 744.944 103.19 743.37 103.19C741.796 103.19 740.52 104.466 740.52 106.04C740.52 107.614 741.796 108.89 743.37 108.89Z" fill="#F16937"/>
<path d="M706.43 67.1499C716.686 67.1499 725 58.8359 725 48.58C725 38.324 716.686 30.0099 706.43 30.0099C696.174 30.0099 687.86 38.324 687.86 48.58C687.86 58.8359 696.174 67.1499 706.43 67.1499Z" fill="#051D24"/>
<path d="M692.66 44.86C692.66 44.86 692.06 44.42 692.78 43.84L694.47 42.33C694.47 42.33 694.95 41.82 695.46 42.26L711.02 54.09V59.76C711.02 59.76 711.01 60.65 709.87 60.55L692.66 44.86Z" fill="#2586C7"/>
<path d="M696.67 48.5099L692.66 52.1699C692.66 52.1699 692.25 52.4799 692.66 53.0299L694.52 54.7299C694.52 54.7299 694.96 55.21 695.62 54.66L699.87 51.4199L696.67 48.5099Z" fill="#0E71B0"/>
<path d="M703.71 48.54L711.06 42.9L711.01 37.26C711.01 37.26 710.7 36.03 709.65 36.67L699.87 45.62L703.71 48.54Z" fill="#0577B6"/>
<path d="M709.87 60.56C710.3 61 710.81 60.86 710.81 60.86L716.54 58.02C717.27 57.52 717.17 56.89 717.17 56.89V39.96C717.17 39.22 716.41 38.96 716.41 38.96L711.44 36.56C710.35 35.89 709.64 36.68 709.64 36.68C709.64 36.68 710.55 36.02 711 37.27V59.67C711 59.82 710.97 59.97 710.9 60.11C710.77 60.37 710.49 60.62 709.8 60.52L709.87 60.56Z" fill="#3B96D1"/>
<path d="M134.8 96.43C129.08 90.77 126.44 83.92 126.44 75.83C126.44 67.7 129.07 60.81 134.8 55.11C137.52 52.34 140.78 50.14 144.37 48.66C147.94 47.19 151.78 46.47 155.65 46.54C162.93 46.42 169.98 49.11 175.4 54.07C176.23 54.84 176.24 55.61 175.49 56.35L169.13 62.91C168.42 63.56 167.73 63.56 167.08 62.91C164.04 60.18 160.1 58.71 156.05 58.78C151.48 58.78 147.67 60.41 144.62 63.7C143.16 65.27 142.03 67.12 141.28 69.13C140.53 71.15 140.18 73.3 140.26 75.46C140.26 80.01 141.61 83.88 144.68 87.1C146.15 88.67 147.94 89.9 149.92 90.74C151.89 91.57 154.01 91.97 156.15 91.91C160.13 92 164.02 90.62 167.09 88.02C167.84 87.37 168.55 87.4 169.2 88.1L175.58 94.83C176.29 95.54 176.26 96.26 175.5 97.01C170.16 102.2 163.03 105.03 155.66 104.87C151.81 104.95 147.98 104.24 144.4 102.79C140.81 101.33 137.55 99.16 134.81 96.42L134.8 96.43Z" fill="url(#paint38_linear_4_1250)"/>
<path d="M55.73 103.18V48.14C55.72 47.93 55.76 47.72 55.84 47.53C55.92 47.34 56.03 47.16 56.18 47.02C56.31 46.87 56.46 46.76 56.64 46.68C56.81 46.6 57 46.56 57.19 46.56H76.85C84.91 47.17 90.93 49.48 96.47 55.17C102.04 60.86 104.25 67.31 104.95 75.61C105.63 83.6 102.36 90.52 96.83 96.21C94.27 98.96 91.16 101.14 87.72 102.62C84.29 104.09 80.59 104.83 76.86 104.78H57.19C57 104.78 56.81 104.74 56.64 104.66C56.47 104.58 56.31 104.46 56.18 104.32C56.03 104.17 55.91 104 55.84 103.8C55.76 103.6 55.73 103.39 55.73 103.18ZM68.31 61.51V92.46H76.04C80.55 92.46 84.31 90.83 87.29 87.59C90.27 84.35 91.87 80.04 91.76 75.6C91.76 70.88 90.26 66.9 87.29 63.66C85.87 62.08 84.13 60.83 82.18 59.98C80.24 59.14 78.15 58.73 76.04 58.79H68.31V61.51Z" fill="url(#paint39_linear_4_1250)"/>
<path d="M128.01 65.8L115.83 93.16H115.33L102.32 63.9C103.79 67.41 104.58 71.25 104.95 75.6C105.45 81.44 103.84 86.7 100.78 91.34L113.72 119.67C114.05 120.28 114.5 120.59 115.1 120.59H115.91C116.51 120.59 116.96 120.3 117.28 119.68L130.46 91.01C127.71 86.42 126.32 81.15 126.43 75.81C126.43 72.24 126.95 68.89 128.01 65.8Z" fill="url(#paint40_linear_4_1250)"/>
<path fill-rule="evenodd" clip-rule="evenodd" d="M60.6599 131.4C60.4699 131.21 60.1499 131.21 59.9599 131.4L57.8599 133.5C57.6699 133.69 57.6699 134.01 57.8599 134.2L65.5599 141.9C65.7499 142.09 66.0699 142.09 66.2599 141.9L68.3599 139.8C68.5499 139.61 68.5499 139.29 68.3599 139.1L60.6599 131.4ZM56.4599 132.1C55.4899 133.07 55.4899 134.63 56.4599 135.6L64.1599 143.3C65.1299 144.27 66.6899 144.27 67.6599 143.3L69.7599 141.2C70.7299 140.23 70.7299 138.67 69.7599 137.7L62.0599 130C61.0899 129.03 59.5299 129.03 58.5599 130L56.4599 132.1Z" fill="white"/>
<path d="M68.3599 134.2C68.5499 134.01 68.5499 133.69 68.3599 133.5L66.2599 131.4C66.0699 131.21 65.7499 131.21 65.5599 131.4L64.5099 132.45L63.1099 131.05L64.1599 130C65.1299 129.03 66.6899 129.03 67.6599 130L69.7599 132.1C70.7299 133.07 70.7299 134.63 69.7599 135.6L64.5099 140.85L63.1099 139.45L68.3599 134.2Z" fill="white"/>
<path d="M61.6999 140.86L60.6499 141.91C60.4599 142.1 60.1399 142.1 59.9499 141.91L57.8499 139.81C57.6599 139.62 57.6599 139.3 57.8499 139.11L63.0999 133.86L61.6999 132.46L56.4499 137.71C55.4799 138.68 55.4799 140.24 56.4499 141.21L58.5499 143.31C59.5199 144.28 61.0799 144.28 62.0499 143.31L63.0999 142.26L61.6999 140.86Z" fill="white"/>
<path d="M63.1098 142.26L61.3198 141.25L61.7098 140.86L63.1098 142.26Z" fill="white" fill-opacity="0.4"/>
<path d="M63.1098 133.86L61.3298 132.84L61.7098 132.46L63.1098 133.86Z" fill="white" fill-opacity="0.4"/>
<path d="M64.5099 132.46L64.9099 132.06L63.1099 131.06L64.5099 132.46Z" fill="white" fill-opacity="0.4"/>
<path d="M64.8999 140.47L63.1099 139.46L64.5099 140.86L64.8999 140.47Z" fill="white" fill-opacity="0.4"/>
<path d="M57.51 136.65L58.52 134.86L58.91 135.25L57.51 136.65Z" fill="white" fill-opacity="0.4"/>
<path d="M65.9099 136.65L66.9299 134.87L67.3099 135.25L65.9099 136.65Z" fill="white" fill-opacity="0.4"/>
<path d="M67.3098 138.05L67.7098 138.45L68.7098 136.65L67.3098 138.05Z" fill="white" fill-opacity="0.4"/>
<path d="M59.2999 138.44L60.3099 136.65L58.9099 138.05L59.2999 138.44Z" fill="white" fill-opacity="0.4"/>
<path d="M76.14 134.87H77.83V141.67H76.14V134.87ZM76.98 134.22C76.68 134.22 76.43 134.13 76.24 133.94C76.05 133.74 75.96 133.49 75.96 133.2C75.96 132.91 76.05 132.66 76.24 132.47C76.44 132.27 76.68 132.17 76.98 132.17C77.28 132.17 77.52 132.27 77.71 132.47C77.91 132.66 78.01 132.9 78.01 133.2C78.01 133.5 77.91 133.75 77.71 133.94C77.53 134.13 77.28 134.22 76.98 134.22ZM81.75 141.75C80.95 141.75 80.36 141.58 79.99 141.24C79.62 140.89 79.44 140.31 79.44 139.49V136.28H78.54V134.87H79.44V133.33H81.13V134.87H82.77V136.28H81.13V139.23C81.13 139.62 81.2 139.89 81.34 140.06C81.49 140.22 81.75 140.3 82.14 140.3C82.4 140.3 82.65 140.29 82.91 140.26V141.67C82.75 141.69 82.58 141.7 82.4 141.71C82.22 141.74 82.01 141.75 81.75 141.75ZM86.64 141.82C86.18 141.82 85.74 141.75 85.32 141.61C84.91 141.46 84.55 141.25 84.24 140.97C83.93 140.68 83.69 140.32 83.51 139.88C83.33 139.43 83.24 138.92 83.24 138.33V138.07C83.24 137.51 83.33 137.01 83.5 136.59C83.67 136.17 83.91 135.82 84.21 135.55C84.51 135.27 84.86 135.06 85.25 134.92C85.64 134.77 86.07 134.7 86.52 134.7C87.59 134.7 88.4 134.98 88.96 135.55C89.52 136.11 89.79 136.93 89.79 138V138.72H84.98C84.99 139.02 85.04 139.28 85.13 139.5C85.22 139.71 85.35 139.89 85.5 140.03C85.65 140.17 85.83 140.27 86.03 140.34C86.24 140.4 86.44 140.43 86.65 140.43C87.09 140.43 87.42 140.37 87.64 140.24C87.86 140.11 88.02 139.92 88.11 139.68H89.66C89.52 140.39 89.19 140.93 88.65 141.28C88.11 141.63 87.43 141.82 86.64 141.82ZM86.57 136.1C86.37 136.1 86.18 136.13 85.98 136.18C85.79 136.23 85.62 136.31 85.48 136.42C85.33 136.53 85.21 136.68 85.12 136.87C85.03 137.06 84.97 137.29 84.97 137.55H88.14C88.13 137.27 88.08 137.03 88 136.84C87.92 136.65 87.81 136.5 87.67 136.39C87.53 136.28 87.37 136.2 87.18 136.16C86.99 136.12 86.79 136.1 86.57 136.1ZM90.49 134.87H92.06V135.87C92.12 135.73 92.21 135.6 92.32 135.46C92.43 135.31 92.56 135.19 92.72 135.09C92.87 134.98 93.04 134.89 93.22 134.82C93.41 134.75 93.61 134.72 93.84 134.72C94 134.72 94.14 134.73 94.25 134.75C94.37 134.77 94.45 134.78 94.48 134.8V136.3C94.39 136.27 94.28 136.24 94.15 136.21C94.02 136.18 93.85 136.16 93.62 136.16C93.36 136.16 93.14 136.2 92.97 136.29C92.8 136.38 92.64 136.49 92.52 136.64C92.41 136.78 92.33 136.94 92.28 137.13C92.23 137.32 92.2 137.52 92.2 137.72V141.69H90.51V134.87H90.49ZM96.83 141.82C96.46 141.82 96.14 141.77 95.85 141.67C95.57 141.56 95.33 141.41 95.13 141.22C94.93 141.02 94.78 140.8 94.68 140.54C94.58 140.27 94.53 139.99 94.53 139.68C94.53 138.31 95.34 137.63 96.97 137.63H99V137.31C99 136.86 98.9 136.55 98.69 136.37C98.49 136.19 98.18 136.1 97.74 136.1C97.35 136.1 97.08 136.17 96.91 136.31C96.74 136.44 96.64 136.6 96.61 136.8H94.92C94.94 136.51 95.01 136.24 95.14 135.98C95.28 135.72 95.47 135.51 95.7 135.33C95.95 135.14 96.25 135 96.6 134.89C96.95 134.78 97.35 134.72 97.81 134.72C98.25 134.72 98.64 134.77 98.99 134.86C99.35 134.95 99.65 135.11 99.9 135.32C100.16 135.53 100.35 135.79 100.49 136.13C100.63 136.46 100.7 136.87 100.7 137.34V139.95C100.7 140.31 100.7 140.63 100.71 140.9C100.73 141.17 100.75 141.43 100.79 141.68H99.21C99.18 141.49 99.15 141.35 99.15 141.26C99.15 141.16 99.15 141.01 99.15 140.81C98.96 141.08 98.68 141.32 98.29 141.53C97.9 141.72 97.42 141.82 96.83 141.82ZM97.36 140.51C97.57 140.51 97.77 140.48 97.96 140.43C98.16 140.37 98.33 140.28 98.49 140.17C98.64 140.05 98.77 139.9 98.86 139.72C98.95 139.54 99 139.33 99 139.09V138.77H97.29C96.96 138.77 96.71 138.85 96.52 139C96.34 139.15 96.25 139.35 96.25 139.6C96.25 139.87 96.34 140.09 96.53 140.25C96.72 140.43 97 140.51 97.36 140.51ZM104.42 141.75C103.62 141.75 103.03 141.58 102.66 141.24C102.29 140.89 102.11 140.31 102.11 139.49V136.28H101.21V134.87H102.11V133.33H103.8V134.87H105.44V136.28H103.8V139.23C103.8 139.62 103.87 139.89 104.01 140.06C104.16 140.22 104.42 140.3 104.81 140.3C105.07 140.3 105.32 140.29 105.58 140.26V141.67C105.42 141.69 105.25 141.7 105.07 141.71C104.89 141.74 104.68 141.75 104.42 141.75ZM106.41 134.87H108.1V141.67H106.41V134.87ZM107.26 134.22C106.96 134.22 106.71 134.13 106.52 133.94C106.33 133.74 106.24 133.49 106.24 133.2C106.24 132.91 106.33 132.66 106.52 132.47C106.72 132.27 106.96 132.17 107.26 132.17C107.56 132.17 107.8 132.27 107.99 132.47C108.19 132.66 108.29 132.9 108.29 133.2C108.29 133.5 108.19 133.75 107.99 133.94C107.81 134.13 107.56 134.22 107.26 134.22ZM108.63 134.87H110.53L112.38 139.56L114.07 134.87H115.82L113.2 141.67H111.51L108.63 134.87ZM119.03 141.82C118.57 141.82 118.13 141.75 117.71 141.61C117.3 141.46 116.94 141.25 116.63 140.97C116.32 140.68 116.08 140.32 115.9 139.88C115.72 139.43 115.63 138.92 115.63 138.33V138.07C115.63 137.51 115.72 137.01 115.89 136.59C116.06 136.17 116.3 135.82 116.6 135.55C116.9 135.27 117.25 135.06 117.64 134.92C118.03 134.77 118.46 134.7 118.91 134.7C119.98 134.7 120.79 134.98 121.35 135.55C121.91 136.11 122.18 136.93 122.18 138V138.72H117.37C117.38 139.02 117.43 139.28 117.52 139.5C117.61 139.71 117.74 139.89 117.89 140.03C118.04 140.17 118.22 140.27 118.42 140.34C118.63 140.4 118.83 140.43 119.04 140.43C119.48 140.43 119.81 140.37 120.03 140.24C120.25 140.11 120.41 139.92 120.5 139.68H122.05C121.91 140.39 121.57 140.93 121.04 141.28C120.5 141.64 119.83 141.82 119.03 141.82ZM118.97 136.1C118.77 136.1 118.58 136.13 118.38 136.18C118.19 136.23 118.02 136.31 117.88 136.42C117.73 136.53 117.61 136.68 117.52 136.87C117.43 137.06 117.37 137.29 117.37 137.55H120.54C120.53 137.27 120.48 137.03 120.4 136.84C120.32 136.65 120.21 136.5 120.07 136.39C119.93 136.28 119.77 136.2 119.58 136.16C119.38 136.12 119.18 136.1 118.97 136.1Z" fill="white"/>
</g>
<defs>
<filter id="filter0_d_4_1250" x="676.34" y="71.33" width="113.54" height="67.71" filterUnits="userSpaceOnUse" color-interpolation-filters="sRGB">
<feFlood flood-opacity="0" result="BackgroundImageFix"/>
<feColorMatrix in="SourceAlpha" type="matrix" values="0 0 0 0 0 0 0 0 0 0 0 0 0 0 0 0 0 0 127 0" result="hardAlpha"/>
<feOffset dy="2"/>
<feGaussianBlur stdDeviation="2"/>
<feComposite in2="hardAlpha" operator="out"/>
<feColorMatrix type="matrix" values="0 0 0 0 0 0 0 0 0 0 0 0 0 0 0 0 0 0 0.25 0"/>
<feBlend mode="normal" in2="BackgroundImageFix" result="effect1_dropShadow_4_1250"/>
<feBlend mode="normal" in="SourceGraphic" in2="effect1_dropShadow_4_1250" result="shape"/>
</filter>
<linearGradient id="paint0_linear_4_1250" x1="565.314" y1="92.5621" x2="711.863" y2="71.9626" gradientUnits="userSpaceOnUse">
<stop stop-color="#13ACC6"/>
<stop offset="1" stop-color="#1496B7"/>
</linearGradient>
<linearGradient id="paint1_linear_4_1250" x1="611.621" y1="31.5797" x2="704.355" y2="18.5447" gradientUnits="userSpaceOnUse">
<stop stop-color="#F36837"/>
<stop offset="1" stop-color="#DC5236"/>
</linearGradient>
<linearGradient id="paint2_linear_4_1250" x1="573.193" y1="148.613" x2="703.987" y2="130.228" gradientUnits="userSpaceOnUse">
<stop stop-color="#F36837"/>
<stop offset="1" stop-color="#DC5236"/>
</linearGradient>
<linearGradient id="paint3_linear_4_1250" x1="577.942" y1="45.0811" x2="582.838" y2="44.3928" gradientUnits="userSpaceOnUse">
<stop stop-color="#7E51C1"/>
<stop offset="1" stop-color="#935DD5"/>
</linearGradient>
<linearGradient id="paint4_linear_4_1250" x1="577.942" y1="57.4813" x2="582.839" y2="56.793" gradientUnits="userSpaceOnUse">
<stop stop-color="#7E51C1"/>
<stop offset="1" stop-color="#935DD5"/>
</linearGradient>
<linearGradient id="paint5_linear_4_1250" x1="577.942" y1="69.8816" x2="582.839" y2="69.1933" gradientUnits="userSpaceOnUse">
<stop stop-color="#7E51C1"/>
<stop offset="1" stop-color="#935DD5"/>
</linearGradient>
<linearGradient id="paint6_linear_4_1250" x1="577.942" y1="82.2819" x2="582.839" y2="81.5937" gradientUnits="userSpaceOnUse">
<stop stop-color="#7E51C1"/>
<stop offset="1" stop-color="#935DD5"/>
</linearGradient>
<linearGradient id="paint7_linear_4_1250" x1="577.943" y1="94.6822" x2="582.839" y2="93.994" gradientUnits="userSpaceOnUse">
<stop stop-color="#7E51C1"/>
<stop offset="1" stop-color="#935DD5"/>
</linearGradient>
<linearGradient id="paint8_linear_4_1250" x1="577.943" y1="107.083" x2="582.84" y2="106.394" gradientUnits="userSpaceOnUse">
<stop stop-color="#7E51C1"/>
<stop offset="1" stop-color="#935DD5"/>
</linearGradient>
<linearGradient id="paint9_linear_4_1250" x1="605.249" y1="45.9738" x2="625.799" y2="43.0852" gradientUnits="userSpaceOnUse">
<stop stop-color="#F36837"/>
<stop offset="1" stop-color="#DC5236"/>
</linearGradient>
<linearGradient id="paint10_linear_4_1250" x1="578.254" y1="127.852" x2="582.53" y2="127.251" gradientUnits="userSpaceOnUse">
<stop stop-color="#7E51C1"/>
<stop offset="1" stop-color="#935DD5"/>
</linearGradient>
<linearGradient id="paint11_linear_4_1250" x1="578.44" y1="26.9832" x2="605.166" y2="23.2265" gradientUnits="userSpaceOnUse">
<stop stop-color="#F36837"/>
<stop offset="1" stop-color="#DC5236"/>
</linearGradient>
<linearGradient id="paint12_linear_4_1250" x1="617.234" y1="26.8112" x2="641.525" y2="23.3968" gradientUnits="userSpaceOnUse">
<stop stop-color="#13ACC6"/>
<stop offset="1" stop-color="#1496B7"/>
</linearGradient>
<linearGradient id="paint13_linear_4_1250" x1="578.443" y1="141.3" x2="605.168" y2="137.543" gradientUnits="userSpaceOnUse">
<stop stop-color="#13ACC6"/>
<stop offset="1" stop-color="#1496B7"/>
</linearGradient>
<linearGradient id="paint14_linear_4_1250" x1="645.021" y1="45.4574" x2="658.235" y2="43.6" gradientUnits="userSpaceOnUse">
<stop stop-color="#F36837"/>
<stop offset="1" stop-color="#DC5236"/>
</linearGradient>
<linearGradient id="paint15_linear_4_1250" x1="643.636" y1="58.9868" x2="658.212" y2="56.938" gradientUnits="userSpaceOnUse">
<stop stop-color="#F36837"/>
<stop offset="1" stop-color="#DC5236"/>
</linearGradient>
<linearGradient id="paint16_linear_4_1250" x1="685.069" y1="58.0059" x2="700.08" y2="58.0059" gradientUnits="userSpaceOnUse">
<stop stop-color="#F36837"/>
<stop offset="1" stop-color="#DC5236"/>
</linearGradient>
<linearGradient id="paint17_linear_4_1250" x1="594.808" y1="68.8996" x2="603.381" y2="67.6946" gradientUnits="userSpaceOnUse">
<stop stop-color="#F36837"/>
<stop offset="1" stop-color="#DC5236"/>
</linearGradient>
<linearGradient id="paint18_linear_4_1250" x1="609.882" y1="69.4179" x2="625.835" y2="67.1755" gradientUnits="userSpaceOnUse">
<stop stop-color="#7E51C1"/>
<stop offset="1" stop-color="#935DD5"/>
</linearGradient>
<linearGradient id="paint19_linear_4_1250" x1="627.882" y1="70.4169" x2="658.058" y2="66.1753" gradientUnits="userSpaceOnUse">
<stop stop-color="#F36837"/>
<stop offset="1" stop-color="#DC5236"/>
</linearGradient>
<linearGradient id="paint20_linear_4_1250" x1="668.115" y1="80.8599" x2="699.861" y2="76.3976" gradientUnits="userSpaceOnUse">
<stop stop-color="#F36837"/>
<stop offset="1" stop-color="#DC5236"/>
</linearGradient>
<linearGradient id="paint21_linear_4_1250" x1="641.853" y1="90.1116" x2="658.195" y2="87.8145" gradientUnits="userSpaceOnUse">
<stop stop-color="#F36837"/>
<stop offset="1" stop-color="#DC5236"/>
</linearGradient>
<linearGradient id="paint22_linear_4_1250" x1="594.809" y1="99.9003" x2="603.381" y2="98.6953" gradientUnits="userSpaceOnUse">
<stop stop-color="#F36837"/>
<stop offset="1" stop-color="#DC5236"/>
</linearGradient>
<linearGradient id="paint23_linear_4_1250" x1="607.476" y1="100.586" x2="625.812" y2="98.0087" gradientUnits="userSpaceOnUse">
<stop stop-color="#F36837"/>
<stop offset="1" stop-color="#DC5236"/>
</linearGradient>
<linearGradient id="paint24_linear_4_1250" x1="611.398" y1="110.647" x2="625.854" y2="108.615" gradientUnits="userSpaceOnUse">
<stop stop-color="#F36837"/>
<stop offset="1" stop-color="#DC5236"/>
</linearGradient>
<linearGradient id="paint25_linear_4_1250" x1="649.7" y1="110.233" x2="658.272" y2="109.028" gradientUnits="userSpaceOnUse">
<stop stop-color="#F36837"/>
<stop offset="1" stop-color="#DC5236"/>
</linearGradient>
<linearGradient id="paint26_linear_4_1250" x1="696.236" y1="139.72" x2="700.508" y2="139.119" gradientUnits="userSpaceOnUse">
<stop stop-color="#13ACC6"/>
<stop offset="1" stop-color="#1496B7"/>
</linearGradient>
<linearGradient id="paint27_linear_4_1250" x1="685.727" y1="84.7438" x2="688.332" y2="84.3775" gradientUnits="userSpaceOnUse">
<stop stop-color="#13ACC6"/>
<stop offset="1" stop-color="#1496B7"/>
</linearGradient>
<linearGradient id="paint28_linear_4_1250" x1="685.727" y1="97.1441" x2="688.333" y2="96.7778" gradientUnits="userSpaceOnUse">
<stop stop-color="#13ACC6"/>
<stop offset="1" stop-color="#1496B7"/>
</linearGradient>
<linearGradient id="paint29_linear_4_1250" x1="685.727" y1="109.544" x2="688.333" y2="109.178" gradientUnits="userSpaceOnUse">
<stop stop-color="#13ACC6"/>
<stop offset="1" stop-color="#1496B7"/>
</linearGradient>
<linearGradient id="paint30_linear_4_1250" x1="685.727" y1="121.945" x2="688.333" y2="121.578" gradientUnits="userSpaceOnUse">
<stop stop-color="#13ACC6"/>
<stop offset="1" stop-color="#1496B7"/>
</linearGradient>
<linearGradient id="paint31_linear_4_1250" x1="732.092" y1="127.527" x2="740.62" y2="126.328" gradientUnits="userSpaceOnUse">
<stop stop-color="#13ACC6"/>
<stop offset="1" stop-color="#1496B7"/>
</linearGradient>
<linearGradient id="paint32_linear_4_1250" x1="719.691" y1="127.527" x2="728.22" y2="126.328" gradientUnits="userSpaceOnUse">
<stop stop-color="#13ACC6"/>
<stop offset="1" stop-color="#1496B7"/>
</linearGradient>
<linearGradient id="paint33_linear_4_1250" x1="707.291" y1="127.527" x2="715.82" y2="126.328" gradientUnits="userSpaceOnUse">
<stop stop-color="#13ACC6"/>
<stop offset="1" stop-color="#1496B7"/>
</linearGradient>
<linearGradient id="paint34_linear_4_1250" x1="694.891" y1="127.527" x2="703.419" y2="126.329" gradientUnits="userSpaceOnUse">
<stop stop-color="#13ACC6"/>
<stop offset="1" stop-color="#1496B7"/>
</linearGradient>
<linearGradient id="paint35_linear_4_1250" x1="768.582" y1="127.526" x2="777.11" y2="126.327" gradientUnits="userSpaceOnUse">
<stop stop-color="#13ACC6"/>
<stop offset="1" stop-color="#1496B7"/>
</linearGradient>
<linearGradient id="paint36_linear_4_1250" x1="756.181" y1="127.526" x2="764.71" y2="126.327" gradientUnits="userSpaceOnUse">
<stop stop-color="#13ACC6"/>
<stop offset="1" stop-color="#1496B7"/>
</linearGradient>
<linearGradient id="paint37_linear_4_1250" x1="743.781" y1="127.526" x2="752.31" y2="126.328" gradientUnits="userSpaceOnUse">
<stop stop-color="#13ACC6"/>
<stop offset="1" stop-color="#1496B7"/>
</linearGradient>
<linearGradient id="paint38_linear_4_1250" x1="151.254" y1="75.7451" x2="151.254" y2="104.873" gradientUnits="userSpaceOnUse">
<stop stop-color="#F36837"/>
<stop offset="1" stop-color="#DC5236"/>
</linearGradient>
<linearGradient id="paint39_linear_4_1250" x1="80.3872" y1="75.7451" x2="80.3872" y2="104.792" gradientUnits="userSpaceOnUse">
<stop stop-color="#13ACC6"/>
<stop offset="1" stop-color="#1496B7"/>
</linearGradient>
<linearGradient id="paint40_linear_4_1250" x1="115.627" y1="92.6553" x2="115.627" y2="120.326" gradientUnits="userSpaceOnUse">
<stop stop-color="#7E51C1"/>
<stop offset="1" stop-color="#935DD5"/>
</linearGradient>
<clipPath id="clip0_4_1250">
<rect width="834.17" height="168.92" fill="white"/>
</clipPath>
</defs>
</svg>
