<svg width="852" height="192" viewBox="0 0 852 192" fill="none" xmlns="http://www.w3.org/2000/svg">
<path d="M454.7 24.42H310.27C306.956 24.42 304.27 27.1063 304.27 30.42V174.85C304.27 178.164 306.956 180.85 310.27 180.85H454.7C458.014 180.85 460.7 178.164 460.7 174.85V30.42C460.7 27.1063 458.014 24.42 454.7 24.42Z" fill="url(#paint0_linear_4_1160)"/>
<path d="M460.71 44.37H355.37C352.35 44.37 349.9 41.92 349.9 38.9V24.42H454.71C458.024 24.42 460.71 27.1063 460.71 30.42V44.37Z" fill="url(#paint1_linear_4_1160)"/>
<path d="M460.7 160.9H304.27V174.85C304.27 178.164 306.956 180.85 310.27 180.85H454.7C458.014 180.85 460.7 178.164 460.7 174.85V160.9Z" fill="url(#paint2_linear_4_1160)"/>
<path d="M313.01 63.02C311.58 63.02 310.42 61.86 310.42 60.43V55.25C310.42 53.82 311.58 52.66 313.01 52.66C314.44 52.66 315.6 53.82 315.6 55.25V60.43C315.6 61.86 314.44 63.02 313.01 63.02Z" fill="url(#paint3_linear_4_1160)"/>
<path d="M313.01 77.82C311.58 77.82 310.42 76.66 310.42 75.23V70.05C310.42 68.62 311.58 67.46 313.01 67.46C314.44 67.46 315.6 68.62 315.6 70.05V75.23C315.6 76.66 314.44 77.82 313.01 77.82Z" fill="url(#paint4_linear_4_1160)"/>
<path d="M313.01 92.63C311.58 92.63 310.42 91.47 310.42 90.04V84.86C310.42 83.43 311.58 82.27 313.01 82.27C314.44 82.27 315.6 83.43 315.6 84.86V90.04C315.6 91.47 314.44 92.63 313.01 92.63Z" fill="url(#paint5_linear_4_1160)"/>
<path d="M313.01 107.43C311.58 107.43 310.42 106.27 310.42 104.84V99.66C310.42 98.23 311.58 97.07 313.01 97.07C314.44 97.07 315.6 98.23 315.6 99.66V104.84C315.6 106.27 314.44 107.43 313.01 107.43Z" fill="url(#paint6_linear_4_1160)"/>
<path d="M313.01 122.23C311.58 122.23 310.42 121.07 310.42 119.64V114.46C310.42 113.03 311.58 111.87 313.01 111.87C314.44 111.87 315.6 113.03 315.6 114.46V119.64C315.6 121.07 314.44 122.23 313.01 122.23Z" fill="url(#paint7_linear_4_1160)"/>
<path d="M313.01 137.04C311.58 137.04 310.42 135.88 310.42 134.45V129.27C310.42 127.84 311.58 126.68 313.01 126.68C314.44 126.68 315.6 127.84 315.6 129.27V134.45C315.6 135.88 314.44 137.04 313.01 137.04Z" fill="url(#paint8_linear_4_1160)"/>
<path d="M335.58 62.52H335.09C332.36 62.52 330.16 60.31 330.16 57.59C330.16 54.86 332.37 52.66 335.09 52.66H335.58C338.31 52.66 340.51 54.87 340.51 57.59C340.52 60.31 338.31 62.52 335.58 62.52Z" fill="white"/>
<path d="M362.48 62.52H347.43C344.7 62.52 342.5 60.31 342.5 57.59C342.5 54.86 344.71 52.66 347.43 52.66H362.48C365.21 52.66 367.41 54.87 367.41 57.59C367.41 60.31 365.2 62.52 362.48 62.52Z" fill="url(#paint9_linear_4_1160)"/>
<path d="M314.37 157.93H311.64C310.96 157.93 310.42 157.38 310.42 156.71C310.42 156.03 310.97 155.49 311.64 155.49H314.37C315.05 155.49 315.59 156.04 315.59 156.71C315.6 157.38 315.05 157.93 314.37 157.93Z" fill="url(#paint10_linear_4_1160)"/>
<path d="M337.67 39.58H315.6C312.74 39.58 310.42 37.26 310.42 34.4C310.42 31.54 312.74 29.22 315.6 29.22H337.67C340.53 29.22 342.85 31.54 342.85 34.4C342.85 37.26 340.53 39.58 337.67 39.58Z" fill="url(#paint11_linear_4_1160)"/>
<path d="M381.05 39.58H361.94C359.08 39.58 356.76 37.26 356.76 34.4C356.76 31.54 359.08 29.22 361.94 29.22H381.05C383.91 29.22 386.23 31.54 386.23 34.4C386.23 37.26 383.91 39.58 381.05 39.58Z" fill="url(#paint12_linear_4_1160)"/>
<path d="M337.67 176.06H315.6C312.74 176.06 310.42 173.74 310.42 170.88C310.42 168.02 312.74 165.7 315.6 165.7H337.67C340.53 165.7 342.85 168.02 342.85 170.88C342.85 173.74 340.53 176.06 337.67 176.06Z" fill="url(#paint13_linear_4_1160)"/>
<path d="M401.12 62.52H395C392.27 62.52 390.07 60.31 390.07 57.59C390.07 54.86 392.28 52.66 395 52.66H401.12C403.85 52.66 406.05 54.87 406.05 57.59C406.05 60.31 403.84 62.52 401.12 62.52Z" fill="url(#paint14_linear_4_1160)"/>
<path d="M451.04 62.52H412.96C410.23 62.52 408.03 60.31 408.03 57.59C408.03 54.86 410.24 52.66 412.96 52.66H451.04C453.77 52.66 455.97 54.87 455.97 57.59C455.98 60.31 453.77 62.52 451.04 62.52Z" fill="white"/>
<path d="M336.82 77.33H333.86C331.82 77.33 330.16 75.67 330.16 73.63C330.16 71.59 331.82 69.93 333.86 69.93H336.82C338.86 69.93 340.52 71.59 340.52 73.63C340.52 75.67 338.86 77.33 336.82 77.33Z" fill="white"/>
<path d="M363.71 77.33H357.46C355.42 77.33 353.76 75.67 353.76 73.63C353.76 71.59 355.42 69.93 357.46 69.93H363.71C365.75 69.93 367.41 71.59 367.41 73.63C367.41 75.67 365.76 77.33 363.71 77.33Z" fill="#051D24"/>
<path d="M402.35 77.33H392.08C390.04 77.33 388.38 75.67 388.38 73.63C388.38 71.59 390.04 69.93 392.08 69.93H402.35C404.39 69.93 406.05 71.59 406.05 73.63C406.05 75.67 404.39 77.33 402.35 77.33Z" fill="url(#paint15_linear_4_1160)"/>
<path d="M452.28 77.33H441.76C439.72 77.33 438.06 75.67 438.06 73.63C438.06 71.59 439.72 69.93 441.76 69.93H452.28C454.32 69.93 455.98 71.59 455.98 73.63C455.98 75.67 454.32 77.33 452.28 77.33Z" fill="url(#paint16_linear_4_1160)"/>
<path d="M336.82 89.66H333.86C331.82 89.66 330.16 88 330.16 85.96C330.16 83.92 331.82 82.26 333.86 82.26H336.82C338.86 82.26 340.52 83.92 340.52 85.96C340.52 88.01 338.86 89.66 336.82 89.66Z" fill="url(#paint17_linear_4_1160)"/>
<path d="M363.71 89.66H351.76C349.72 89.66 348.06 88 348.06 85.96C348.06 83.92 349.72 82.26 351.76 82.26H363.71C365.75 82.26 367.41 83.92 367.41 85.96C367.41 88.01 365.76 89.66 363.71 89.66Z" fill="url(#paint18_linear_4_1160)"/>
<path d="M402.35 89.66H373.09C371.05 89.66 369.39 88 369.39 85.96C369.39 83.92 371.05 82.26 373.09 82.26H402.35C404.39 82.26 406.05 83.92 406.05 85.96C406.05 88.01 404.39 89.66 402.35 89.66Z" fill="url(#paint19_linear_4_1160)"/>
<path d="M452.28 89.66H426.7C424.66 89.66 423 88 423 85.96C423 83.92 424.66 82.26 426.7 82.26H452.28C454.32 82.26 455.98 83.92 455.98 85.96C455.98 88.01 454.32 89.66 452.28 89.66Z" fill="white"/>
<path d="M336.82 102H333.86C331.82 102 330.16 100.34 330.16 98.3C330.16 96.26 331.82 94.6 333.86 94.6H336.82C338.86 94.6 340.52 96.26 340.52 98.3C340.52 100.34 338.86 102 336.82 102Z" fill="white"/>
<path d="M363.71 102H360.75C358.71 102 357.05 100.34 357.05 98.3C357.05 96.26 358.71 94.6 360.75 94.6H363.71C365.75 94.6 367.41 96.26 367.41 98.3C367.41 100.34 365.76 102 363.71 102Z" fill="white"/>
<path d="M402.35 102H385.11C383.07 102 381.41 100.34 381.41 98.3C381.41 96.26 383.07 94.6 385.11 94.6H402.35C404.39 94.6 406.05 96.26 406.05 98.3C406.05 100.34 404.39 102 402.35 102Z" fill="white"/>
<path d="M452.28 102H421.11C419.07 102 417.41 100.34 417.41 98.3C417.41 96.26 419.07 94.6 421.11 94.6H452.28C454.32 94.6 455.98 96.26 455.98 98.3C455.98 100.34 454.32 102 452.28 102Z" fill="url(#paint20_linear_4_1160)"/>
<path d="M336.82 114.34H333.86C331.82 114.34 330.16 112.68 330.16 110.64C330.16 108.6 331.82 106.94 333.86 106.94H336.82C338.86 106.94 340.52 108.6 340.52 110.64C340.52 112.68 338.86 114.34 336.82 114.34Z" fill="white"/>
<path d="M363.71 114.34H346.19C344.15 114.34 342.49 112.68 342.49 110.64C342.49 108.6 344.15 106.94 346.19 106.94H363.71C365.75 106.94 367.41 108.6 367.41 110.64C367.41 112.68 365.76 114.34 363.71 114.34Z" fill="#051D24"/>
<path d="M402.35 114.34H389.93C387.89 114.34 386.23 112.68 386.23 110.64C386.23 108.6 387.89 106.94 389.93 106.94H402.35C404.39 106.94 406.05 108.6 406.05 110.64C406.05 112.68 404.39 114.34 402.35 114.34Z" fill="url(#paint21_linear_4_1160)"/>
<path d="M452.28 114.34H414.63C412.59 114.34 410.93 112.68 410.93 110.64C410.93 108.6 412.59 106.94 414.63 106.94H452.28C454.32 106.94 455.98 108.6 455.98 110.64C455.98 112.68 454.32 114.34 452.28 114.34Z" fill="white"/>
<path d="M336.82 126.68H333.86C331.82 126.68 330.16 125.02 330.16 122.98C330.16 120.94 331.82 119.28 333.86 119.28H336.82C338.86 119.28 340.52 120.94 340.52 122.98C340.52 125.02 338.86 126.68 336.82 126.68Z" fill="url(#paint22_linear_4_1160)"/>
<path d="M363.71 126.68H348.86C346.82 126.68 345.16 125.02 345.16 122.98C345.16 120.94 346.82 119.28 348.86 119.28H363.71C365.75 119.28 367.41 120.94 367.41 122.98C367.41 125.02 365.76 126.68 363.71 126.68Z" fill="url(#paint23_linear_4_1160)"/>
<path d="M402.35 126.68H395.82C393.78 126.68 392.12 125.02 392.12 122.98C392.12 120.94 393.78 119.28 395.82 119.28H402.35C404.39 119.28 406.05 120.94 406.05 122.98C406.05 125.02 404.39 126.68 402.35 126.68Z" fill="white"/>
<path d="M452.28 126.68H427.46C425.42 126.68 423.76 125.02 423.76 122.98C423.76 120.94 425.42 119.28 427.46 119.28H452.28C454.32 119.28 455.98 120.94 455.98 122.98C455.98 125.02 454.32 126.68 452.28 126.68Z" fill="white"/>
<path d="M336.82 139.01H333.86C331.82 139.01 330.16 137.35 330.16 135.31C330.16 133.27 331.82 131.61 333.86 131.61H336.82C338.86 131.61 340.52 133.27 340.52 135.31C340.52 137.36 338.86 139.01 336.82 139.01Z" fill="white"/>
<path d="M363.74 139.01H353.56C351.53 139.01 349.89 137.37 349.89 135.34V135.28C349.89 133.25 351.53 131.61 353.56 131.61H363.74C365.77 131.61 367.41 133.25 367.41 135.28V135.34C367.41 137.37 365.77 139.01 363.74 139.01Z" fill="url(#paint24_linear_4_1160)"/>
<path d="M402.35 139.01H399.39C397.35 139.01 395.69 137.35 395.69 135.31C395.69 133.27 397.35 131.61 399.39 131.61H402.35C404.39 131.61 406.05 133.27 406.05 135.31C406.05 137.36 404.39 139.01 402.35 139.01Z" fill="url(#paint25_linear_4_1160)"/>
<path d="M452.28 139.01H411.73C409.69 139.01 408.03 137.35 408.03 135.31C408.03 133.27 409.69 131.61 411.73 131.61H452.28C454.32 131.61 455.98 133.27 455.98 135.31C455.98 137.36 454.32 139.01 452.28 139.01Z" fill="#051D24"/>
<path d="M336.82 151.35H333.86C331.82 151.35 330.16 149.69 330.16 147.65C330.16 145.61 331.82 143.95 333.86 143.95H336.82C338.86 143.95 340.52 145.61 340.52 147.65C340.52 149.69 338.86 151.35 336.82 151.35Z" fill="white"/>
<path d="M363.71 151.35H358.65C356.61 151.35 354.95 149.69 354.95 147.65C354.95 145.61 356.61 143.95 358.65 143.95H363.71C365.75 143.95 367.41 145.61 367.41 147.65C367.41 149.69 365.76 151.35 363.71 151.35Z" fill="#051D24"/>
<path d="M402.35 151.35H393.76C391.72 151.35 390.06 149.69 390.06 147.65C390.06 145.61 391.72 143.95 393.76 143.95H402.35C404.39 143.95 406.05 145.61 406.05 147.65C406.05 149.69 404.39 151.35 402.35 151.35Z" fill="#051D24"/>
<path d="M452.28 151.35H438.54C436.5 151.35 434.84 149.69 434.84 147.65C434.84 145.61 436.5 143.95 438.54 143.95H452.28C454.32 143.95 455.98 145.61 455.98 147.65C455.98 149.69 454.32 151.35 452.28 151.35Z" fill="white"/>
<path d="M454.11 176.06H453.62C452.59 176.06 451.75 175.22 451.75 174.19V167.57C451.75 166.54 452.59 165.7 453.62 165.7H454.11C455.14 165.7 455.98 166.54 455.98 167.57V174.19C455.98 175.22 455.14 176.06 454.11 176.06Z" fill="url(#paint26_linear_4_1160)"/>
<path d="M455.32 66.23H330.81C330.45 66.23 330.15 65.94 330.15 65.57C330.15 65.21 330.44 64.91 330.81 64.91H455.32C455.68 64.91 455.98 65.2 455.98 65.57C455.98 65.94 455.68 66.23 455.32 66.23Z" fill="white"/>
<g filter="url(#filter0_d_4_1160)">
<path d="M552.42 91.92H438.41C435.096 91.92 432.41 94.6063 432.41 97.92V157.21C432.41 160.524 435.096 163.21 438.41 163.21H552.42C555.734 163.21 558.42 160.524 558.42 157.21V97.92C558.42 94.6063 555.734 91.92 552.42 91.92Z" fill="white"/>
</g>
<path d="M507.66 101.63V145.64" stroke="black" stroke-width="0.987" stroke-miterlimit="10" stroke-linecap="round" stroke-linejoin="round"/>
<path d="M440.32 110.56C439.77 110.56 439.33 110.12 439.33 109.57V101.18C439.33 100.63 439.77 100.19 440.32 100.19C440.87 100.19 441.31 100.63 441.31 101.18V109.57C441.31 110.12 440.87 110.56 440.32 110.56Z" fill="url(#paint27_linear_4_1160)"/>
<path d="M440.32 125.37C439.77 125.37 439.33 124.93 439.33 124.38V115.99C439.33 115.44 439.77 115 440.32 115C440.87 115 441.31 115.44 441.31 115.99V124.38C441.31 124.93 440.87 125.37 440.32 125.37Z" fill="url(#paint28_linear_4_1160)"/>
<path d="M440.32 140.17C439.77 140.17 439.33 139.73 439.33 139.18V130.79C439.33 130.24 439.77 129.8 440.32 129.8C440.87 129.8 441.31 130.24 441.31 130.79V139.18C441.31 139.73 440.87 140.17 440.32 140.17Z" fill="url(#paint29_linear_4_1160)"/>
<path d="M440.32 154.98C439.77 154.98 439.33 154.54 439.33 153.99V145.6C439.33 145.05 439.77 144.61 440.32 144.61C440.87 144.61 441.31 145.05 441.31 145.6V153.99C441.31 154.54 440.87 154.98 440.32 154.98Z" fill="url(#paint30_linear_4_1160)"/>
<path d="M494.03 155.96C494.03 155.41 494.47 154.97 495.02 154.97H503.41C503.96 154.97 504.4 155.41 504.4 155.96C504.4 156.51 503.96 156.95 503.41 156.95H495.02C494.47 156.95 494.03 156.51 494.03 155.96Z" fill="url(#paint31_linear_4_1160)"/>
<path d="M479.22 155.96C479.22 155.41 479.66 154.97 480.21 154.97H488.6C489.15 154.97 489.59 155.41 489.59 155.96C489.59 156.51 489.15 156.95 488.6 156.95H480.21C479.67 156.95 479.22 156.51 479.22 155.96Z" fill="url(#paint32_linear_4_1160)"/>
<path d="M464.42 155.96C464.42 155.41 464.86 154.97 465.41 154.97H473.8C474.35 154.97 474.79 155.41 474.79 155.96C474.79 156.51 474.35 156.95 473.8 156.95H465.41C464.86 156.95 464.42 156.51 464.42 155.96Z" fill="url(#paint33_linear_4_1160)"/>
<path d="M449.61 155.96C449.61 155.41 450.05 154.97 450.6 154.97H458.99C459.54 154.97 459.98 155.41 459.98 155.96C459.98 156.51 459.54 156.95 458.99 156.95H450.6C450.06 156.95 449.61 156.51 449.61 155.96Z" fill="url(#paint34_linear_4_1160)"/>
<path d="M537.59 155.96C537.59 155.41 538.03 154.97 538.58 154.97H546.97C547.52 154.97 547.96 155.41 547.96 155.96C547.96 156.51 547.52 156.95 546.97 156.95H538.58C538.04 156.95 537.59 156.51 537.59 155.96Z" fill="url(#paint35_linear_4_1160)"/>
<path d="M522.79 155.96C522.79 155.41 523.23 154.97 523.78 154.97H532.17C532.72 154.97 533.16 155.41 533.16 155.96C533.16 156.51 532.72 156.95 532.17 156.95H523.78C523.23 156.95 522.79 156.51 522.79 155.96Z" fill="url(#paint36_linear_4_1160)"/>
<path d="M507.98 155.96C507.98 155.41 508.42 154.97 508.97 154.97H517.36C517.91 154.97 518.35 155.41 518.35 155.96C518.35 156.51 517.91 156.95 517.36 156.95H508.97C508.43 156.95 507.98 156.51 507.98 155.96Z" fill="url(#paint37_linear_4_1160)"/>
<path d="M447.68 144.61L464.42 131.66L481.72 139.06L498.51 120.19L522.79 149.1L547.04 101.63" stroke="#F16937" stroke-width="2.4674" stroke-miterlimit="10" stroke-linecap="round" stroke-linejoin="round"/>
<path d="M447.68 136.76L467.01 143.26L491.68 105.38L495.41 113.97L513.17 109.03L525.49 119.4L547.96 112.82" stroke="#051D24" stroke-width="2.4674" stroke-miterlimit="10" stroke-linecap="round" stroke-linejoin="round"/>
<path d="M507.66 113.97C509.544 113.97 511.07 112.443 511.07 110.56C511.07 108.677 509.544 107.15 507.66 107.15C505.777 107.15 504.25 108.677 504.25 110.56C504.25 112.443 505.777 113.97 507.66 113.97Z" fill="#051D24"/>
<path d="M507.66 134.38C509.544 134.38 511.07 132.853 511.07 130.97C511.07 129.087 509.544 127.56 507.66 127.56C505.777 127.56 504.25 129.087 504.25 130.97C504.25 132.853 505.777 134.38 507.66 134.38Z" fill="#F16937"/>
<path d="M441.84 82.96C462.114 82.96 478.55 66.5244 478.55 46.25C478.55 25.9756 462.114 9.53998 441.84 9.53998C421.566 9.53998 405.13 25.9756 405.13 46.25C405.13 66.5244 421.566 82.96 441.84 82.96Z" fill="#1E1E1E"/>
<path d="M414.62 38.89C414.62 38.89 413.43 38.03 414.86 36.87L418.19 33.88C418.19 33.88 419.14 32.87 420.15 33.75L450.9 57.13V68.34C450.9 68.34 450.89 70.1 448.64 69.91L414.62 38.89Z" fill="#2586C7"/>
<path d="M422.55 46.1199L414.62 53.3599C414.62 53.3599 413.81 53.9699 414.62 55.0599L418.3 58.4199C418.3 58.4199 419.17 59.3599 420.47 58.2899L428.87 51.8899L422.55 46.1199Z" fill="#0E71B0"/>
<path d="M436.46 46.1799L450.99 35.0299L450.9 23.8799C450.9 23.8799 450.28 21.4499 448.21 22.7099L428.87 40.3899L436.46 46.1799Z" fill="#0577B6"/>
<path d="M448.63 69.93C449.47 70.8 450.5 70.51 450.5 70.51L461.83 64.9C463.28 63.91 463.08 62.67 463.08 62.67V29.2C463.08 27.73 461.58 27.22 461.58 27.22L451.76 22.47C449.61 21.14 448.21 22.71 448.21 22.71C448.21 22.71 450.02 21.4 450.9 23.88V68.15C450.9 68.45 450.84 68.75 450.71 69.02C450.45 69.54 449.89 70.03 448.54 69.83L448.63 69.93Z" fill="#3B96D1"/>
<path d="M301.07 171.23C313.126 171.23 322.9 161.456 322.9 149.4C322.9 137.344 313.126 127.57 301.07 127.57C289.014 127.57 279.24 137.344 279.24 149.4C279.24 161.456 289.014 171.23 301.07 171.23Z" fill="#1E1E1E"/>
<path d="M306.03 154.44C304.53 152.96 303.83 151.16 303.83 149.03C303.83 146.9 304.52 145.09 306.03 143.59C306.74 142.86 307.6 142.29 308.54 141.9C309.48 141.51 310.49 141.33 311.5 141.34C313.41 141.31 315.26 142.01 316.68 143.32C316.9 143.52 316.9 143.72 316.7 143.92L315.03 145.64C314.84 145.81 314.66 145.81 314.49 145.64C313.69 144.92 312.66 144.54 311.6 144.55C310.4 144.55 309.4 144.98 308.6 145.84C308.22 146.25 307.92 146.74 307.72 147.27C307.52 147.8 307.43 148.37 307.45 148.93C307.45 150.12 307.81 151.14 308.61 151.98C309 152.39 309.46 152.72 309.98 152.93C310.5 153.15 311.05 153.25 311.61 153.24C312.66 153.26 313.68 152.9 314.48 152.22C314.68 152.05 314.86 152.06 315.03 152.24L316.7 154.01C316.89 154.2 316.88 154.39 316.68 154.58C315.28 155.94 313.41 156.68 311.47 156.64C310.46 156.66 309.45 156.47 308.52 156.09C307.6 155.72 306.75 155.16 306.03 154.44Z" fill="url(#paint38_linear_4_1160)"/>
<path d="M285.28 156.21V141.76C285.28 141.71 285.29 141.65 285.31 141.6C285.33 141.55 285.36 141.5 285.4 141.47C285.43 141.43 285.47 141.4 285.52 141.38C285.57 141.36 285.62 141.35 285.67 141.35H290.83C292.95 141.51 294.53 142.12 295.98 143.61C297.44 145.1 298.02 146.8 298.21 148.98C298.39 151.08 297.53 152.89 296.08 154.39C295.41 155.11 294.59 155.68 293.69 156.07C292.79 156.46 291.82 156.65 290.84 156.64H285.68C285.63 156.64 285.58 156.63 285.54 156.61C285.49 156.59 285.45 156.56 285.42 156.52C285.38 156.48 285.35 156.43 285.33 156.38C285.28 156.32 285.27 156.27 285.28 156.21ZM288.58 145.27V153.39H290.61C291.79 153.39 292.78 152.96 293.56 152.11C294.34 151.26 294.76 150.13 294.73 148.96C294.73 147.72 294.34 146.68 293.56 145.82C293.19 145.41 292.73 145.08 292.22 144.85C291.71 144.63 291.16 144.52 290.61 144.54H288.58V145.27Z" fill="url(#paint39_linear_4_1160)"/>
<path d="M304.25 146.4L301.05 153.58H300.92L297.5 145.9C297.89 146.82 298.09 147.83 298.19 148.97C298.32 150.5 297.9 151.88 297.1 153.1L300.5 160.54C300.59 160.7 300.71 160.78 300.86 160.78H301.07C301.23 160.78 301.35 160.7 301.43 160.54L304.89 153.01C304.17 151.81 303.8 150.42 303.83 149.02C303.83 148.09 303.97 147.21 304.25 146.4Z" fill="url(#paint40_linear_4_1160)"/>
<defs>
<filter id="filter0_d_4_1160" x="428.41" y="87.92" width="134.01" height="79.29" filterUnits="userSpaceOnUse" color-interpolation-filters="sRGB">
<feFlood flood-opacity="0" result="BackgroundImageFix"/>
<feColorMatrix in="SourceAlpha" type="matrix" values="0 0 0 0 0 0 0 0 0 0 0 0 0 0 0 0 0 0 127 0" result="hardAlpha"/>
<feOffset/>
<feGaussianBlur stdDeviation="2"/>
<feComposite in2="hardAlpha" operator="out"/>
<feColorMatrix type="matrix" values="0 0 0 0 0 0 0 0 0 0 0 0 0 0 0 0 0 0 0.15 0"/>
<feBlend mode="normal" in2="BackgroundImageFix" result="effect1_dropShadow_4_1160"/>
<feBlend mode="normal" in="SourceGraphic" in2="effect1_dropShadow_4_1160" result="shape"/>
</filter>
<linearGradient id="paint0_linear_4_1160" x1="295.057" y1="114.898" x2="470.026" y2="90.3041" gradientUnits="userSpaceOnUse">
<stop stop-color="#13ACC6"/>
<stop offset="1" stop-color="#1496B7"/>
</linearGradient>
<linearGradient id="paint1_linear_4_1160" x1="350.344" y1="42.09" x2="461.061" y2="26.5271" gradientUnits="userSpaceOnUse">
<stop stop-color="#F36837"/>
<stop offset="1" stop-color="#DC5236"/>
</linearGradient>
<linearGradient id="paint2_linear_4_1160" x1="304.463" y1="181.819" x2="460.623" y2="159.869" gradientUnits="userSpaceOnUse">
<stop stop-color="#F36837"/>
<stop offset="1" stop-color="#DC5236"/>
</linearGradient>
<linearGradient id="paint3_linear_4_1160" x1="310.134" y1="58.2096" x2="315.98" y2="57.3879" gradientUnits="userSpaceOnUse">
<stop stop-color="#7E51C1"/>
<stop offset="1" stop-color="#935DD5"/>
</linearGradient>
<linearGradient id="paint4_linear_4_1160" x1="310.134" y1="73.0146" x2="315.98" y2="72.1929" gradientUnits="userSpaceOnUse">
<stop stop-color="#7E51C1"/>
<stop offset="1" stop-color="#935DD5"/>
</linearGradient>
<linearGradient id="paint5_linear_4_1160" x1="310.134" y1="87.8196" x2="315.98" y2="86.9979" gradientUnits="userSpaceOnUse">
<stop stop-color="#7E51C1"/>
<stop offset="1" stop-color="#935DD5"/>
</linearGradient>
<linearGradient id="paint6_linear_4_1160" x1="310.134" y1="102.625" x2="315.981" y2="101.803" gradientUnits="userSpaceOnUse">
<stop stop-color="#7E51C1"/>
<stop offset="1" stop-color="#935DD5"/>
</linearGradient>
<linearGradient id="paint7_linear_4_1160" x1="310.135" y1="117.43" x2="315.981" y2="116.608" gradientUnits="userSpaceOnUse">
<stop stop-color="#7E51C1"/>
<stop offset="1" stop-color="#935DD5"/>
</linearGradient>
<linearGradient id="paint8_linear_4_1160" x1="310.135" y1="132.235" x2="315.981" y2="131.413" gradientUnits="userSpaceOnUse">
<stop stop-color="#7E51C1"/>
<stop offset="1" stop-color="#935DD5"/>
</linearGradient>
<linearGradient id="paint9_linear_4_1160" x1="342.736" y1="59.2755" x2="367.272" y2="55.8267" gradientUnits="userSpaceOnUse">
<stop stop-color="#F36837"/>
<stop offset="1" stop-color="#DC5236"/>
</linearGradient>
<linearGradient id="paint10_linear_4_1160" x1="310.506" y1="157.032" x2="315.611" y2="156.314" gradientUnits="userSpaceOnUse">
<stop stop-color="#7E51C1"/>
<stop offset="1" stop-color="#935DD5"/>
</linearGradient>
<linearGradient id="paint11_linear_4_1160" x1="310.729" y1="36.6021" x2="342.637" y2="32.117" gradientUnits="userSpaceOnUse">
<stop stop-color="#F36837"/>
<stop offset="1" stop-color="#DC5236"/>
</linearGradient>
<linearGradient id="paint12_linear_4_1160" x1="357.046" y1="36.3968" x2="386.047" y2="32.3203" gradientUnits="userSpaceOnUse">
<stop stop-color="#13ACC6"/>
<stop offset="1" stop-color="#1496B7"/>
</linearGradient>
<linearGradient id="paint13_linear_4_1160" x1="310.732" y1="173.088" x2="342.64" y2="168.603" gradientUnits="userSpaceOnUse">
<stop stop-color="#13ACC6"/>
<stop offset="1" stop-color="#1496B7"/>
</linearGradient>
<linearGradient id="paint14_linear_4_1160" x1="390.221" y1="58.659" x2="405.998" y2="56.4413" gradientUnits="userSpaceOnUse">
<stop stop-color="#F36837"/>
<stop offset="1" stop-color="#DC5236"/>
</linearGradient>
<linearGradient id="paint15_linear_4_1160" x1="388.567" y1="74.812" x2="405.97" y2="72.3658" gradientUnits="userSpaceOnUse">
<stop stop-color="#F36837"/>
<stop offset="1" stop-color="#DC5236"/>
</linearGradient>
<linearGradient id="paint16_linear_4_1160" x1="438.056" y1="73.6264" x2="455.978" y2="73.6264" gradientUnits="userSpaceOnUse">
<stop stop-color="#F36837"/>
<stop offset="1" stop-color="#DC5236"/>
</linearGradient>
<linearGradient id="paint17_linear_4_1160" x1="330.271" y1="86.6471" x2="340.506" y2="85.2085" gradientUnits="userSpaceOnUse">
<stop stop-color="#F36837"/>
<stop offset="1" stop-color="#DC5236"/>
</linearGradient>
<linearGradient id="paint18_linear_4_1160" x1="348.268" y1="87.266" x2="367.314" y2="84.5888" gradientUnits="userSpaceOnUse">
<stop stop-color="#7E51C1"/>
<stop offset="1" stop-color="#935DD5"/>
</linearGradient>
<linearGradient id="paint19_linear_4_1160" x1="369.759" y1="88.4588" x2="405.786" y2="83.3947" gradientUnits="userSpaceOnUse">
<stop stop-color="#F36837"/>
<stop offset="1" stop-color="#DC5236"/>
</linearGradient>
<linearGradient id="paint20_linear_4_1160" x1="417.794" y1="100.927" x2="455.696" y2="95.5993" gradientUnits="userSpaceOnUse">
<stop stop-color="#F36837"/>
<stop offset="1" stop-color="#DC5236"/>
</linearGradient>
<linearGradient id="paint21_linear_4_1160" x1="386.439" y1="111.973" x2="405.95" y2="109.23" gradientUnits="userSpaceOnUse">
<stop stop-color="#F36837"/>
<stop offset="1" stop-color="#DC5236"/>
</linearGradient>
<linearGradient id="paint22_linear_4_1160" x1="330.272" y1="123.66" x2="340.507" y2="122.221" gradientUnits="userSpaceOnUse">
<stop stop-color="#F36837"/>
<stop offset="1" stop-color="#DC5236"/>
</linearGradient>
<linearGradient id="paint23_linear_4_1160" x1="345.395" y1="124.479" x2="367.287" y2="121.401" gradientUnits="userSpaceOnUse">
<stop stop-color="#F36837"/>
<stop offset="1" stop-color="#DC5236"/>
</linearGradient>
<linearGradient id="paint24_linear_4_1160" x1="350.077" y1="136.49" x2="367.337" y2="134.064" gradientUnits="userSpaceOnUse">
<stop stop-color="#F36837"/>
<stop offset="1" stop-color="#DC5236"/>
</linearGradient>
<linearGradient id="paint25_linear_4_1160" x1="395.807" y1="135.996" x2="406.042" y2="134.557" gradientUnits="userSpaceOnUse">
<stop stop-color="#F36837"/>
<stop offset="1" stop-color="#DC5236"/>
</linearGradient>
<linearGradient id="paint26_linear_4_1160" x1="451.368" y1="171.201" x2="456.469" y2="170.484" gradientUnits="userSpaceOnUse">
<stop stop-color="#13ACC6"/>
<stop offset="1" stop-color="#1496B7"/>
</linearGradient>
<linearGradient id="paint27_linear_4_1160" x1="438.82" y1="105.564" x2="441.932" y2="105.127" gradientUnits="userSpaceOnUse">
<stop stop-color="#13ACC6"/>
<stop offset="1" stop-color="#1496B7"/>
</linearGradient>
<linearGradient id="paint28_linear_4_1160" x1="438.821" y1="120.369" x2="441.932" y2="119.932" gradientUnits="userSpaceOnUse">
<stop stop-color="#13ACC6"/>
<stop offset="1" stop-color="#1496B7"/>
</linearGradient>
<linearGradient id="paint29_linear_4_1160" x1="438.821" y1="135.174" x2="441.932" y2="134.737" gradientUnits="userSpaceOnUse">
<stop stop-color="#13ACC6"/>
<stop offset="1" stop-color="#1496B7"/>
</linearGradient>
<linearGradient id="paint30_linear_4_1160" x1="438.821" y1="149.979" x2="441.933" y2="149.542" gradientUnits="userSpaceOnUse">
<stop stop-color="#13ACC6"/>
<stop offset="1" stop-color="#1496B7"/>
</linearGradient>
<linearGradient id="paint31_linear_4_1160" x1="494.178" y1="156.643" x2="504.36" y2="155.212" gradientUnits="userSpaceOnUse">
<stop stop-color="#13ACC6"/>
<stop offset="1" stop-color="#1496B7"/>
</linearGradient>
<linearGradient id="paint32_linear_4_1160" x1="479.372" y1="156.644" x2="489.554" y2="155.213" gradientUnits="userSpaceOnUse">
<stop stop-color="#13ACC6"/>
<stop offset="1" stop-color="#1496B7"/>
</linearGradient>
<linearGradient id="paint33_linear_4_1160" x1="464.567" y1="156.644" x2="474.749" y2="155.213" gradientUnits="userSpaceOnUse">
<stop stop-color="#13ACC6"/>
<stop offset="1" stop-color="#1496B7"/>
</linearGradient>
<linearGradient id="paint34_linear_4_1160" x1="449.762" y1="156.644" x2="459.944" y2="155.213" gradientUnits="userSpaceOnUse">
<stop stop-color="#13ACC6"/>
<stop offset="1" stop-color="#1496B7"/>
</linearGradient>
<linearGradient id="paint35_linear_4_1160" x1="537.744" y1="156.643" x2="547.926" y2="155.211" gradientUnits="userSpaceOnUse">
<stop stop-color="#13ACC6"/>
<stop offset="1" stop-color="#1496B7"/>
</linearGradient>
<linearGradient id="paint36_linear_4_1160" x1="522.939" y1="156.643" x2="533.121" y2="155.212" gradientUnits="userSpaceOnUse">
<stop stop-color="#13ACC6"/>
<stop offset="1" stop-color="#1496B7"/>
</linearGradient>
<linearGradient id="paint37_linear_4_1160" x1="508.134" y1="156.643" x2="518.316" y2="155.212" gradientUnits="userSpaceOnUse">
<stop stop-color="#13ACC6"/>
<stop offset="1" stop-color="#1496B7"/>
</linearGradient>
<linearGradient id="paint38_linear_4_1160" x1="310.348" y1="149.01" x2="310.348" y2="156.655" gradientUnits="userSpaceOnUse">
<stop stop-color="#F36837"/>
<stop offset="1" stop-color="#DC5236"/>
</linearGradient>
<linearGradient id="paint39_linear_4_1160" x1="291.747" y1="149.01" x2="291.747" y2="156.634" gradientUnits="userSpaceOnUse">
<stop stop-color="#13ACC6"/>
<stop offset="1" stop-color="#1496B7"/>
</linearGradient>
<linearGradient id="paint40_linear_4_1160" x1="300.997" y1="153.448" x2="300.997" y2="160.711" gradientUnits="userSpaceOnUse">
<stop stop-color="#7E51C1"/>
<stop offset="1" stop-color="#935DD5"/>
</linearGradient>
</defs>
</svg>
