<svg width="12" height="3" viewBox="0 0 12 3" fill="none" xmlns="http://www.w3.org/2000/svg">
<path d="M1.99951 1.09369C1.99951 1.37103 1.89818 1.61103 1.69551 1.81369C1.50351 2.00569 1.26885 2.10169 0.991512 2.10169C0.724845 2.10169 0.490178 2.00569 0.287512 1.81369C0.0955117 1.61103 -0.000488281 1.37103 -0.000488281 1.09369C-0.000488281 0.81636 0.0955117 0.581693 0.287512 0.389693C0.490178 0.187027 0.724845 0.0856934 0.991512 0.0856934C1.26885 0.0856934 1.50351 0.187027 1.69551 0.389693C1.89818 0.581693 1.99951 0.81636 1.99951 1.09369ZM7.00751 1.09369C6.99685 1.37103 6.89551 1.61103 6.70351 1.81369C6.51151 2.00569 6.27685 2.10169 5.99951 2.10169C5.72218 2.09103 5.48751 1.98969 5.29551 1.79769C5.10351 1.60569 5.00751 1.37103 5.00751 1.09369C5.00751 0.81636 5.10351 0.581693 5.29551 0.389693C5.48751 0.187027 5.72218 0.0910266 5.99951 0.101693C6.27685 0.101693 6.51151 0.197693 6.70351 0.389693C6.90618 0.581693 7.00751 0.81636 7.00751 1.09369ZM11.9995 1.09369C11.9995 1.37103 11.8982 1.61103 11.6955 1.81369C11.5035 2.00569 11.2688 2.10169 10.9915 2.10169C10.7248 2.09103 10.4902 1.98969 10.2875 1.79769C10.0955 1.60569 9.99951 1.37103 9.99951 1.09369C9.99951 0.81636 10.0955 0.581693 10.2875 0.389693C10.4902 0.187027 10.7248 0.0910266 10.9915 0.101693C11.2688 0.101693 11.5035 0.197693 11.6955 0.389693C11.8982 0.581693 11.9995 0.81636 11.9995 1.09369Z" fill="#CCCCCC"/>
</svg>
