<svg width="35.346" height="21.28" version="1.1" viewBox="0 0 35.346 21.28" xmlns="http://www.w3.org/2000/svg"><g fill="currentColor"><path d="m23.196 14.784c-1.68-1.68-2.52-3.72-2.52-6.12s0.84399-4.444 2.532-6.132c1.688-1.688 3.732-2.532 6.132-2.532 2.24 0 4.176 0.74399 5.808 2.232 0.24 0.224 0.248 0.448 0.024 0.672l-1.872 1.944c-0.208 0.192-0.408 0.192-0.6 0-0.912-0.816-1.992-1.224-3.24-1.224-1.344 0-2.464 0.484-3.36 1.452s-1.344 2.132-1.344 3.492c0 1.344 0.452 2.492 1.356 3.444s2.028 1.428 3.372 1.428c1.248 0 2.32-0.384 3.216-1.152 0.224-0.192 0.432-0.184 0.624 0.024l1.872 1.992c0.208 0.208 0.2 0.424-0.024 0.648-1.6 1.552-3.544 2.328-5.832 2.328-2.4 0-4.448-0.83199-6.144-2.496zm-6.075 6.232-7.488-16.152c-0.08-0.16-0.076-0.304 0.012-0.432s0.22-0.192 0.396-0.192h3.192c0.208 0 0.344 0.087999 0.408 0.264l3.96 8.76h0.144l3.96-8.76c0.064-0.176 0.2-0.264 0.408-0.264h3.192c0.176 0 0.308 0.063999 0.396 0.192 0.088 0.128 0.092 0.272 0.012 0.432l-7.536 16.152c-0.096 0.176-0.232 0.264-0.408 0.264h-0.24c-0.176 0-0.312-0.088-0.408-0.264zm-17.121-4.432v-15.888c0-0.128 0.044-0.236 0.132-0.324s0.188-0.132 0.3-0.132h5.856c2.32 0 4.304 0.81999 5.952 2.46s2.472 3.612 2.472 5.916c0 2.32-0.82399 4.304-2.472 5.952s-3.632 2.472-5.952 2.472h-5.856c-0.112 0-0.212-0.044-0.3-0.132s-0.132-0.196-0.132-0.324zm3.744-3.096h2.304c1.344 0 2.46-0.468 3.348-1.404s1.332-2.092 1.332-3.468c0-1.36-0.444-2.508-1.332-3.444s-2.004-1.404-3.348-1.404h-2.304z"/></g></svg>
