<svg width="18" height="18" fill="none" version="1.1" viewBox="0 0 18 18" xmlns="http://www.w3.org/2000/svg"><path d="m9.2502 14.995c-0.0843 0.0035-0.169 0.0053-0.2542 0.0053-3.3137 0-6-2.6863-6-6s2.6863-6 6-6 6 2.6863 6 6c0 0.0852-0.0018 0.1699-0.0053 0.2542 0.3435 0.1209 0.6679 0.2823 0.9674 0.4785 0.0251-0.2408 0.0379-0.4853 0.0379-0.7327 0-3.866-3.134-7-7-7s-7 3.134-7 7 3.134 7 7 7c0.2474 0 0.4919-0.0128 0.7327-0.0379-0.1962-0.2995-0.3576-0.6239-0.4785-0.9674zm-1.2542-4.9947v-5h1v4.5h2v1h-3zm6.008 1h-1.008v2h-2v0.992h2v2h1.008v-2h2v-0.992h-2z" clip-rule="evenodd" fill="#c5c5c5"/></svg>
