<svg width="7" height="11" viewBox="0 0 7 11" fill="none" xmlns="http://www.w3.org/2000/svg">
<path d="M0.999859 0.400635H6.25586V0.604635C6.25586 0.908635 6.18786 1.18863 6.05186 1.44463C5.92386 1.70063 5.73986 1.92063 5.49986 2.10464V4.25264C5.73186 4.35664 5.93986 4.49264 6.12386 4.66063C6.30786 4.82064 6.46386 5.00464 6.59186 5.21264C6.72786 5.41264 6.82786 5.63264 6.89186 5.87263C6.96386 6.11264 6.99986 6.35664 6.99986 6.60464V6.98864H3.99986V9.40064L3.62786 10.1446L3.25586 9.40064V6.98864H0.255859V6.60464C0.255859 6.35664 0.287859 6.11664 0.351859 5.88464C0.423859 5.64464 0.523859 5.42064 0.651859 5.21264C0.92386 4.78064 1.28786 4.46064 1.74386 4.25264V2.10464C1.51186 1.92863 1.32786 1.70863 1.19186 1.44463C1.06386 1.18063 0.999859 0.900635 0.999859 0.604635V0.400635ZM1.81586 0.988635C1.84786 1.07663 1.88786 1.15663 1.93586 1.22863C2.02386 1.35664 2.13586 1.46064 2.27186 1.54064L2.49986 1.68464V4.76863L2.24786 4.85264C1.93586 4.96464 1.67586 5.14064 1.46786 5.38064C1.36386 5.50064 1.26786 5.66063 1.17986 5.86064C1.09986 6.04464 1.03986 6.22463 0.999859 6.40063H6.25586C6.21586 6.23263 6.15586 6.05264 6.07586 5.86064C5.98786 5.66063 5.89186 5.50064 5.78786 5.38064C5.57186 5.13264 5.31186 4.95663 5.00786 4.85264L4.75586 4.75664V1.68464L4.97186 1.55263C5.04386 1.51263 5.10786 1.46464 5.16386 1.40864C5.21986 1.35264 5.27186 1.29263 5.31986 1.22863C5.37586 1.15663 5.41586 1.07663 5.43986 0.988635H1.81586Z" fill="white"/>
</svg>
