<?xml version="1.0" standalone="no"?>
<!DOCTYPE svg PUBLIC "-//W3C//DTD SVG 20010904//EN"
 "http://www.w3.org/TR/2001/REC-SVG-20010904/DTD/svg10.dtd">
<svg version="1.0" xmlns="http://www.w3.org/2000/svg"
 width="208.000000pt" height="242.000000pt" viewBox="0 0 208.000000 242.000000"
 preserveAspectRatio="xMidYMid meet">
<metadata>
Created by potrace 1.16, written by Peter Selinger 2001-2019
</metadata>
<g transform="translate(0.000000,242.000000) scale(0.100000,-0.100000)"
fill="#ffffff" stroke="none">
<path d="M593 1997 c-233 -232 -423 -430 -423 -439 0 -23 105 -145 141 -164
17 -8 38 -13 48 -9 9 3 131 122 270 265 139 143 257 260 262 260 5 0 9 -272 9
-675 0 -797 -16 -715 140 -715 156 0 140 -84 140 722 l0 682 268 -273 c147
-149 275 -272 284 -271 24 0 145 105 164 141 9 18 12 39 8 52 -3 12 -191 208
-418 435 -358 359 -415 412 -441 412 -26 0 -84 -55 -452 -423z"/>
<path d="M20 260 c-17 -17 -20 -33 -20 -120 0 -158 -133 -140 1040 -140 1173
0 1040 -18 1040 140 0 158 133 140 -1040 140 -987 0 -1000 0 -1020 -20z"/>
</g>
</svg>
